<svg xmlns="http://www.w3.org/2000/svg" width="600" height="600"><path fill="none" d="M0 0h600v600H0zm238 101-3.234 1.5c-35.188 16.774-59.554 47.66-72.564 83.71-2.937 8.452-5.073 16.894-6.202 25.79l3 1v2l-2.414-.176c-9.751-.415-9.751-.415-13.336 2.113-2.66 3.62-2.866 5.607-2.754 9.977.62 2.57 1.41 3.498 3.504 5.086 3.5.813 3.5.813 7 1l3-2c-.187-2.875-.187-2.875-1-6-2.562-1.375-2.562-1.375-5-2 2.313.063 2.313.063 5 1 1.813 3.563 1.813 3.563 3 7l-2 1q-.252 10.599-.482 21.198-.08 3.607-.166 7.213-.122 5.18-.23 10.359l-.083 3.267-.06 3.033-.061 2.671C153 282 153 282 154 285c-3.599-3.496-6.814-7.125-10-11l-2-2c.946 7.055 5.717 12.009 10.938 16.563L155 290l-.974 1.946c-1.351 4.021-1.38 7.698-1.44 11.913l-.059 2.614c-.06 2.76-.106 5.518-.152 8.277q-.057 2.713-.117 5.426c-.094 4.422-.16 8.844-.216 13.267a555 555 0 0 1-.188 7.55l-.096 4.612-.085 2.119c-.044 3.081.05 4.89 1.873 7.43 1.954 1.408 1.954 1.408 5.454 2.846l-3.062-1.437c-4.28-2.397-6.728-5.804-9.555-9.735L145 345h-1c-.111 6.866 1.548 10.451 6.309 15.371L152 362l2 2h-2c-.712 22.621-1.191 45.246-1.562 67.875l-.034 2.022c-.37 22.702-.543 45.398-.404 68.103l8 2-12-2v4c6.612 6.507 18.199 5.241 26.84 5.176l4.16-.051q2.127-.016 4.254-.027c3.582-.023 7.164-.06 10.746-.098h3q-7.333.112-14.667.165a728 728 0 0 0-4.971.061c-9.438.146-17.868-.074-26.984-2.772L146 508l-2 2c.25 2.063.25 2.063 1 4l2 1-4 2v12q13.078.034 26.155.052 6.072.007 12.144.023 5.855.016 11.71.02 2.239.003 4.477.01 3.125.01 6.25.009l3.6.006C210 529 210 529 211 528c.072-1.52.084-3.042.063-4.562l-.028-2.504L211 519h2v9a37363 37363 0 0 0 50.196.065c42.412.028 84.808-.31 127.213-1.027A382 382 0 0 1 396 527q3.062-.043 6.124-.092l3.821-.06 19.465-.312 11.342-.18L459 526l.066-3.828.038-2.153c-.134-2.605-1.108-4.63-2.104-7.019.375-2.312.375-2.312 1-4l-4-1 3-4-3-1 .491-1.762c.806-3.545.661-7.122.66-10.739l.008-2.6c.006-2.856.002-5.712-.003-8.567l-.002-3.002c-.026-22.86-.735-45.688-1.545-68.531-.186-5.312-.364-10.625-.543-15.938Q452.545 376.431 452 361l-2-1 3-5h-2l.016-3.693q.026-6.9.039-13.8.008-2.964.02-5.928c.108-25.01.108-25.01-1.075-35.579l-1-1 7-9-1-2-4 5-2-58 6-2c2-2.187 2-2.187 3-5-.562-3.687-.562-3.687-2-7-3.304-2.332-6.297-2.21-10.25-2.125l-3.266.055L440 215v-2h4a160 160 0 0 0-6.5-27.25l-.899-2.741c-1.451-4.255-2.863-7.424-5.601-11.009a385 385 0 0 1-2-6c-5.803-11.34-13.29-21.408-21.922-30.73-1.736-1.896-3.349-3.827-4.953-5.833C398.009 124.625 393 120.85 388 117l-1.61-1.248c-21.594-16.58-49.452-27.959-76.921-27.885l-2.409-.003q-2.505 0-5.012.006-3.81.005-7.622-.007-2.447 0-4.895.004l-2.276-.006C270.033 87.937 253.339 93.56 238 101" id="svg-layer-0" style="pointer-events: all; fill: none;"/><path fill="#0C2744" d="M357.863 299.688c2.484 1.686 4.886 3.325 7.137 5.312v2l1.79.766c8.153 4.552 12.727 15.682 15.21 24.234 1.381 6.274 2.225 12.627 3 19h-3c-3.128-6.406-4.526-13.05-6-20-.34 6.387.052 10.238 3 16-.812 2.75-.812 2.75-2 5v2h-2l-1 2-1-2-3 3-2-4c-.684 6.157 1.192 10.091 4.004 15.547C373 371 373 371 372 374c-7.823-7.376-12.617-14.56-13.12-25.65-.13-6.452-.046-12.9.12-19.35h-2c-.625 2.375-.625 2.375-1 5l2 2c.125 2.625.125 2.625 0 5l-2 1 .875 3.176 1.125 4.137.578 2.091c.8 2.954 1.422 5.522 1.422 8.596l-2.117-.105-2.758-.082-2.742-.106L350 360c-2.543 3.814-2.58 6.53-2 11 1.694 2.989 3.35 3.113 6.688 4.188L358 376l-1.562 2.5c-1.877 4.568-1.552 6.726-.438 11.5 4.21 2.807 6.116 1.945 11 1l1-2-10 2c-1.562-2.375-1.562-2.375-3-5l1-2 2 2-1-6c2 3 2 3 3 5 3.179 2.002 6.313 2.497 10 3l1 3 2 1 1-2 3 1c.914 2.52.914 2.52 1.625 5.813l.727 3.207c2.269 12.776 1.765 25.808 1.71 38.73q-.008 3.097-.013 6.195-.017 7.528-.049 15.055h-1l-.06-3.273c-.076-4-.165-7.999-.257-11.998q-.058-2.599-.105-5.197c-.045-2.488-.103-4.975-.164-7.462l-.035-2.355c-.151-5.487-.151-5.487-2.379-7.715v41l3 1c-3.245 23.312-3.245 23.312-7.758 27.715C370 493 370 493 366.992 494.293c-3.748 2.138-4.839 4.245-6.867 8.02-3.884 6.798-7.768 11.253-15.314 13.736-3.81.95-7.015 1.205-10.933 1.21l-2.043.01c-2.21.01-4.419.003-6.628-.003l-4.66.005q-4.875.005-9.75-.01c-4.134-.012-8.268-.005-12.402.007q-4.812.009-9.624 0-2.284-.003-4.567.005c-28.254.068-28.254.068-38.497-9.39-3.024-3.272-5.366-6.06-7.082-10.195-2.287-3.782-5.137-4.348-9.25-5.633-2.895-1.286-3.825-2.303-5.375-5.055-.914-3.031-.914-3.031-1.625-6.5l-.727-3.406c-1.916-11.113-1.805-22.345-1.778-33.583q.005-4.014-.007-8.029c-.016-34.671-.016-34.671 6.137-49.482 1.796 3.368 2 5.183 2 9l1-3 3-1 1 2 2-1c2.031.934 4.035 1.932 6 3v3h5v-2h-3c.613-2.962 1.254-4.38 3-7 .3-1.937.3-1.937.313-4l.05-2.062c-.482-2.571-1.279-3.382-3.363-4.938-2.262-.73-2.262-.73-4.687-1.187l-2.45-.481L234 376c2.611-4.835 5.375-8.871 9-13l-1-2 .938-3c2.277-7.57 1.588-14.039-1.868-21.09-.943-1.684-2-3.304-3.07-4.91-.312 2.625-.312 2.625 0 6q2.494 3.005 5 6c1.91 6.877.454 12.335-2.875 18.438C238 365 238 365 235.75 365.875L234 366c-1.456-4.52-.27-7.516 1-12-3.333 2.613-3.683 5.251-4.437 9.313-1.419 6.668-2.723 10.794-8.563 14.687-4.374-29.206-4.374-29.206 2.438-38.5l1.906-2.305c2.455-3.255 2.993-6.217 3.656-10.195-3.588 1.794-4.36 6.803-5.701 10.453-2.384 6.267-2.384 6.267-5.299 8.547-.536-11.778-.248-24.226 7-34l1.422-1.941c6.875-8.392 15.483-12.186 26.223-13.344 6.921-.245 12.11 1.398 18.042 4.848 4.938 5.204 7.607 10.986 7.813 18.187-.198 4.36-1.089 7.532-3.5 11.25l1 1c3.146-7.342 3.98-13.079 2-21l1.828.36c6.536 1.054 6.536 1.054 9.672-.985 1.594-2.523 2.172-4.425 2.5-7.375l4-1 1 6c1.938-.812 1.938-.812 4-2l1-3 1.875 2.938C307 309 307 309 309 310c4.863.442 7.905-.33 12-3a375 375 0 0 0 4-6c10.008-8.007 22.126-7.64 32.863-1.312M319 310c-1.387 7.63-1.094 14.218 3.25 20.875 3.351 4.15 6.354 5.847 11.742 6.473 6.145.276 11.36.172 16.414-3.598 3.523-3.868 5.425-8.665 5.711-13.883-.18-1.867-.18-1.867-1.117-4.867l-3-2v3l1 1c.145 3.116-.139 6-1 9-4.26 3.787-7.738 4.826-13.25 5.25-5.455-.364-9.812-1.72-14.125-5.125-3.777-4.94-4.127-10.107-4.625-16.125zm-70 4c-3.595 3.79-3.676 7.134-3.555 12.168.942 4.81 3.824 7.806 7.555 10.832 3.456 2.264 6.48 2.299 10.563 2.313l3.44.05C270 339 270 339 271.904 337.48L273 336l-8 1v-2l3.313-.312c3.543-.661 4.62-.89 6.687-3.688l-1.875.5c-7.904 1.265-14.384 1.188-21.125-3.5-2.576-2.415-2.945-3.474-3.312-7 .298-2.87.816-4.568 2.312-7zm51 32c-1.718 3.639-1.978 5.197-1 9 .067 1.916.085 3.833.063 5.75l-.028 2.984L299 366l-3.613-.07q-2.35-.029-4.7-.055c-.785-.017-1.57-.034-2.38-.05l-2.295-.02-2.11-.032C282 366 282 366 279 368c3.371 1.498 5.204 2 9 2v-2l11 2v12l-3-11-7-1 2 1v2l-2 1c3.75 1.125 3.75 1.125 6 0v2l-2.25.75c-2.951 1.341-4.598 2.86-6.75 5.25l1 2 6-4-1 6h2l1-7h2l.184 1.898.253 2.477.247 2.46C298 388 298 388 299 390h2l4-10 2 7c1.137-3.404.84-5.775.063-9.25l-.59-2.703L306 373h3l1 3 2-2 6 2v-2l-5-2 9-4-2-2-2.312.188c-3.89-.272-5.203-2.348-7.688-5.188l-3 1-.375-2.312C306 357 306 357 304 354c-.818-2.64-1.38-5.303-2-8zm-15 8 2 2.688c1.989 3.293 2.437 4.595 2 8.312l-2 1c6.75-.875 6.75-.875 9-2 1.379-2.685 2.114-4.298 1.625-7.312L297 355l-1 1-2-2v4l-5.273-3.125C287 354 287 354 285 354m-1 125v3l2 1h-6c.875 4.75.875 4.75 2 7h-2l1 4 1-1 1 6c4.578-.482 4.578-.482 6.375-2.687.817-3.024.312-5.29-.375-8.313l1 1c2.375.375 2.375.375 5 0 2.636-3.272 3-4.72 3-9l-3.187-.437c-2.22-.328-4.435-.701-6.625-1.188C286 478 286 478 284 479" id="svg-layer-1" style="pointer-events: all;"/><path fill="#102B4B" d="m348 131 3.563 1.672c9.75 4.747 17.55 10.942 25.437 18.328l2.594 2.383c15.261 14.582 26.082 35 30.406 55.617v4l-3.312 1.625c-3.756 2.175-5.432 4.103-6.688 8.375.544 4.01 1.062 6.172 4.125 8.875 3.654 1.43 6.977 1.687 10.875 2.125q-.774 14.97-1.574 29.938-.417 7.84-.81 15.68-.242 4.774-.497 9.547-.119 2.257-.227 4.515-.156 3.158-.33 6.316l-.183 3.6c-.411 3.696-1.264 6.865-2.379 10.404l2 1v-2l5-1 1-3c2.066-.95 2.066-.95 4.563-1.687l2.503-.762L426 306v-2h7c-1.052 3.383-2.214 4.132-5.3 6.035a261 261 0 0 1-4.012 2.027q-1.995 1.016-3.989 2.036l-1.912.969c-2.324 1.213-4.56 2.55-6.787 3.933v-2c-5.114 1.068-10.072 2.231-15 4q.435-2 .875-4l.547-2.523c.48-2.057 1.077-4.085 1.703-6.102 2.114-8.372 1.7-18.053-.59-26.348L398 280l-.781-2.793c-.287-4.2 1.268-6.883 3.219-10.457 3.022-5.988 4.958-10.939 3.562-17.75-1.694-4.724-4.237-7.707-8-11-3.16-1.053-5.555-1.2-8.875-1.25l-3.117-.078c-3.418.373-5.245 1.325-8.008 3.328-2.558 3.41-2.376 6.86-2 11 1.589 2.16 2.52 2.896 5.156 3.469 2.378.031 4.511.009 6.844-.469 2.104-2.422 3-3.782 3-7l-.937 2c-2.475 2.4-3.277 2.321-6.625 2.375-4.13-.068-4.13-.068-6.438-2.375.075-4.063.367-6.272 3.063-9.375 4.373-2.42 8.23-3.136 13.09-2.219 3.65 1.143 5.645 2.386 8.347 5.156 2.351 5.39 2.48 10.277.734 15.907-1.832 4.363-4.042 7.997-7.234 11.531l-1.617-1.574c-9.106-8.523-17.76-12.892-30.27-12.77-6.242.69-10.456 3.521-14.613 8.094-3.06 6.63-3.046 11.436-.562 18.313A204 204 0 0 0 348 287c1 0 1 0 3-1l2 .875c3.564 1.336 6.822 1.594 10.598 1.879 2.224.228 4.252.645 6.402 1.246l-6 3c6.363-2.281 6.363-2.281 8.938-5.187 1.465-3.88 1.401-6.671 1.062-10.813l-2-2 1.063 1.688c1.202 2.966.989 4.306-.063 7.312-1.375 2.313-1.375 2.313-4 4-6.606.942-12.234.344-18-3-5.774-5.146-5.774-5.146-6.238-8.953-.18-5.586.454-8.665 4.238-13.047 4.571-4.47 8.642-6.937 15.164-7.031 7.08.486 12.287 2.446 17.3 7.531 7.347 8.542 7.347 8.542 7.536 14.5-.96 3.34-.96 3.34-2.375 6.938-4.002 11.019-5.245 21.969-.625 33.062l-1.875-1.937A793 793 0 0 0 381 313l-2.137-2.125c-10.34-9.857-22.176-14.573-35.988-17.312-5.595-1.144-10.706-2.394-14.875-6.563l-1 2c-1.625-1.437-1.625-1.437-3-4 .336-3.097 1.114-6.018 2-9h2v-2c-2.492 1.527-3.8 2.52-4.937 5.25-.087 3.824.64 6.721 2.937 9.75 2.851 2.014 5.827 3.556 9 5-5.216 3.477-9.906 3.513-16 3-5.187-1.729-7.487-4.168-10-9-.25-2.875-.25-2.875 0-5-1.106 5.834-1.271 8.766 2 14l-4-2c-1 1-1 1-2 4h-3l4 2-1 3-5-2c.506-2.169 1-4 2-6h-2l-1 2-1.812-1.062C295 296 295 296 292 297v-2h-2c-1 2-1 2-1 5h4c-1.491 3.795-3.757 5.61-7 8-3.077-5.415-3.077-5.415-2.687-8.375L284 298h2c1.453-8.193 1.453-8.193-.437-11.562L284 285l.176 1.828c.366 6.494.366 6.494-2.176 9.672-3.725 1.863-6.855 2.957-11 2.5-3.52-1.366-6.754-3.077-10-5v-1l3.313-.75c3.922-1.33 4.732-1.77 6.687-5.25.293-2.797.293-2.797.188-5.75l-.083-2.984L271 276h-2l.813 3.063c.218 4.592-.63 5.94-3.293 9.457-3.459 3.369-6.407 3.702-11.204 3.656l-2.066-.051-2.113-.027c-1.713-.024-3.425-.06-5.137-.098v-1l-2.195-.078c-6.16-.361-10.105-.825-14.805-4.922l-2-3 2.125.875L232 285l2.563 1.125c5.129 1.306 10.173 1.017 15.437.875h2c3.558-2.52 4.2-5.868 5-10 .01-5.303-.61-9.762-4-14-5.786-5.786-12.432-7.136-20.344-7.202-3.222.021-6.437.095-9.656.202l1.469-2.281c2.005-3.56 2.107-5.688 1.531-9.719-2.631-3.783-4.347-4.829-8.812-6-6.055-.377-10.471 1.512-15 5.438-3.852 5.292-5.371 12.117-5.028 18.574.664 4.09 1.454 7.317 3.528 10.926 1.787 4.17 1.142 7.407.648 11.855-1.008 9.624-.05 18.717 1.664 28.207l-7-3v-3l-3-1c-.703-3.91-1.177-7.729-1.389-11.695l-.182-3.318-.183-3.542-.197-3.683q-.206-3.85-.406-7.701-.307-5.873-.625-11.745l-.397-7.496-.19-3.53c-.297-5.772-.501-11.51-.431-17.29l11-3c1.86-6.613 2.137-10.47 0-17l-10-2c-1.323-3.97-.132-6.62 1.125-10.437.23-.716.462-1.43.7-2.167 5.746-17.475 14.334-37.008 29.132-48.763 2.375-1.899 4.526-3.976 6.73-6.07C240.648 134.927 257.284 127.437 274 123l2.352-.648c23.167-5.813 50.405-1.858 71.648 8.648m-47-5-.445 1.715c-.691 2.26-1.372 4.236-2.555 6.285-3.187 1-3.187 1-6 1 1.375 1.5 1.375 1.5 3 3h2l1 2h2l1-2 2 3 2-1v-2l5-1c-1-2-1-2-4-4l3-4-1.937 1C305 131 305 131 304 131l-1-5zm-1 16-.738 2.219c-1.413 3.114-3.045 4.864-5.45 7.281C289.274 156.377 282 164.982 282 172l-6-2c.465 2.907 1.538 4.97 3.063 7.438 1.794 3.031 2.323 4.988 1.937 8.562v4c7.843 3.217 14.833 3.422 23.25 3.313l3.797.01c10.481-.062 10.481-.062 14.953-2.323.938-1.812.938-1.812 1-4l-1.125-2.375c-.875-2.625-.875-2.625.25-5.687 1.743-2.731 3.56-4.702 5.875-6.938v-2l-8 1-1-6h-2l-.297-1.723c-1.922-6.226-7.88-12.005-12.703-16.277h-2l-1-5zm-2 59c-4.626 5.088-7.125 8.744-7.625 15.75l-.227 2.984L290 222h10l-3.324.148-4.363.227-2.186.094c-4.1.224-7.37.708-11.127 2.531v2c-1.72 0-3.342-.572-5-1v3l13 1-2 4-3-1-1 5c3.576 1.64 6.163 2.217 10.082 1.977l2.822-.157 2.909-.195 2.966-.172q3.612-.21 7.221-.453v-2l6.055.098C315 237 315 237 317 236c.625-2.062.625-2.062 1-4l1.977-.297c5.657-.968 9.507-2.138 14.023-5.703l-1-2c-2.062-.625-2.062-.625-4-1h7v-3l-8-2v-2l-9 1-1-3h-22c0-6.874.098-8 4-13z" id="svg-layer-2" style="pointer-events: all;"/><path fill="#0B2643" d="M449 361h3q.6 17.856 1.173 35.714.267 8.3.545 16.6c.777 23.086 1.424 46.158 1.438 69.26l.006 2.829q.002 3.897-.012 7.795l.002 2.326c-.036 5.243-.036 5.243-1.152 7.476-7.162 2.419-14.785 2.28-22.25 2.188l-3.323-.024c-21.388-.225-21.388-.225-28.427-3.164-.17-10.938.36-21.755 1.059-32.664l.329-5.302q.343-5.52.693-11.038.446-7.026.881-14.053.421-6.772.847-13.545l.16-2.556q.432-6.923.902-13.844c.121-1.876.221-3.753.32-5.63l.196-3.205.143-2.697c.837-4.395 3.065-7.58 6.72-10.091 2.424-1.645 4.497-2.682 7.25-3.812 3.624-1.618 5.896-3.449 8.805-6.07 2.905-2.558 5.917-5.116 9.757-5.93 4.08-1.185 6.594-5.108 9.063-8.375zm0 26c-.955 6.375-1.12 12.56-1.062 19l.013 2.926q.018 3.537.049 7.074h2l1 8h1q.075-6.699.11-13.397.016-2.277.04-4.554c.025-2.187.037-4.374.045-6.56l.032-3.984c-.215-3.319-.785-5.538-2.227-8.505z" id="svg-layer-3" style="pointer-events: all;"/><path fill="#09243F" d="M152 364c24.472 9.686 24.472 9.686 35 17l2.33 1.601c4.629 3.586 7.183 6.226 8.027 12.136q.226 3.322.327 6.65l.214 3.633c.22 3.888.38 7.776.54 11.668.135 2.679.282 5.357.43 8.036q.43 7.966.79 15.937c.286 6.292.631 12.58 1.018 18.866C201.53 473.7 202.118 487.8 202 502c-2.38 1.19-3.838 1.127-6.494 1.13l-2.822.009-3.055-.006-3.131.003q-3.283 0-6.565-.006-5.03-.005-10.06.007-3.184 0-6.37-.004l-3.049.006-2.83-.01-2.492-.002C153 503 153 503 150 502c-.281-46 .553-92.023 2-138" id="svg-layer-4" style="pointer-events: all;"/><path fill="#2F466A" d="M281 88h37l-3 2 2 3-1 3 3-1 1-3 7-1 6 9 1-6 1.938.875c2.69.989 4.882 1.396 7.687 1.813 4 .805 4 .805 5.621 2.996.817 1.941.817 1.941 1.754 5.316 4.474.128 8.367-.582 12.688-1.687L366 103l2 2-2 5h-2c.125 1.813.125 1.813 1 4 3.063 1.75 3.063 1.75 6 3l2.813-2.562c1.582-1.442 1.582-1.442 3.187-2.438l3 1 .367 3.21.508 4.165.238 2.117c.66 5.281.66 5.281 2.887 7.508 2.625.625 2.625.625 5 1l-1-4v3l-4-1-1-5 4-2 6 5-1.625 2.188C390 132 390 132 390.813 134.813L392 137h6l2 4h9l-4 3 4-1v4h-2v2l2 1 1 3 5-1-.625-2.375L414 147l2-2c5.153 7.79 10.096 15.486 14 24l-4-1v3h-4l1 5h6v3h-4l6 2c-3 2-3 2-5 2v2l8-1c.625 2.313.625 2.313 1 5l-2 3 4 1 1 4h-3l1-3-4 1-1 4-1-1 .188-2.875C430 192 430 192 428 190.125L426 189c-1.245 2.49-.777 3.41 0 6h2c-.6 3.356-1.846 5.378-4 8 1 2 1 2 3 4-3.62 1.316-6.096 2-10 2v-3l5-1c-2.875-4.875-2.875-4.875-4-6v5l-7 3-2-11 5-1h-4c-3-2-3-2-3.812-4.5L406 188l2-2c2.625.375 2.625.375 5 1l1-3-3.937-.375c-2.215-.21-2.215-.21-4.063-.625l-1-2h2v-3l-4-2v-1l-4 1c-.315-.592-.63-1.183-.953-1.793-2.391-4.415-4.859-8.31-8.047-12.207v-2l-3-1c-1.578-1.602-1.578-1.602-3.25-3.625-9.488-11.149-9.488-11.149-15.75-14.375l2-2h3c-1.467-3.778-3.351-5.169-6.812-7.187l-2.583-1.543c-2.572-1.254-4.786-1.85-7.605-2.27v-2c-2.375-1.062-2.375-1.062-5-2l-2 1-1-7-2.312.563C343 119 343 119 340 118v6c-3.114 1.557-5.29.224-8.562-.75l-3.793-1.125A407 407 0 0 1 315 118l2-6c-8.067.941-8.067.941-12 2h-2v-3h-8l3 1c0 2 0 2-1.625 4.188C294 118 294 118 290.75 117.75L288 117l1-4-13-1 2 5 2.25-.562c2.7-.43 4.196-.29 6.75.562v2l-2.484.148-3.266.227c-1.067.07-2.135.14-3.234.21-3.016.415-3.016.415-5.141 1.478-3.29 1.645-6.338.527-9.875-.063v-3l-3-1 8-3-2-6 4-1v-3l2-1v2h5c-.414-2.899-.912-3.915-3.062-6C272 97 272 97 272 93l1.898-.148 2.477-.227c.812-.07 1.624-.14 2.46-.21C281 92 281 92 283 90z" id="svg-layer-5" style="pointer-events: all;"/><path fill="#0C2746" d="M215 262h2c-.429 3.717-2.363 5.628-4.727 8.395-5.18 6.531-5.42 14.547-5.273 22.605 1.047 7.296 3.426 13.59 7 20a123 123 0 0 0 8.5-9.125c5.775-6.577 12.777-9.339 21.521-10.036 2.162-.097 4.315-.141 6.479-.151l2.105-.017c3.668.052 5.266.243 8.395 2.329l-2.965.332C247.323 297.597 238.541 299.06 230 306l-1 2h-2l-.875 1.777a91 91 0 0 1-2.125 3.977c-5.063 9.157-5.312 19.118-5.187 29.371l.001 3.09c.03 5.232.294 10.323.947 15.512.27 2.561.372 5.1.45 7.675l.086 2.756q.08 2.82.133 5.64l.093 2.73.06 2.46C221 385 221 385 224 387c-.598 3.913-1.443 7.627-2.5 11.438-2.328 10.049-2.314 20.288-2.5 30.562l-.066 3.36c-.82 47.901-.82 47.901 7.066 59.64 2.137.879 2.137.879 4.688 1.563 6.609 2.369 9.37 7.299 12.312 13.437v3l2 2.875c2 3.125 2 3.125 2 6.125-2.521 2.521-3.512 2.294-7.008 2.414l-2.988.117-3.129.094-3.152.117q-3.86.142-7.723.258v-1l-9-2 .5-2.625c.906-6.116.87-10.008-2.5-15.375l-3-1c-.366-2.04-.717-4.082-1.062-6.125l-.598-3.445c-.338-3.405-.063-6.102.66-9.43h-2l.125 2.188c-.134 3.02-.877 5.081-2.125 7.812h-1c-.226-4.583-.428-9.166-.625-13.75l-.195-3.945-.157-3.79-.158-3.49c.139-3.111.727-4.339 2.135-7.025.993-5.223 1.187-10.356 1.238-15.652l.025-2.479q.02-2.59.032-5.18.018-2.603.062-5.204c.266-15.607-1.278-29.712-9.357-43.485l4-5 4 6c.128-7.755.215-15.51.275-23.267q.038-3.951.102-7.902c.061-3.803.09-7.605.111-11.41l.078-3.523c.004-10.195-2.686-19.774-9.808-27.363-3.322-2.901-6.994-5.251-10.758-7.535l2-3c7.274 1.679 13.946 6.746 18 13v2h2l-.84-2.387c-4.558-13.707-6.53-29.494-.472-43.175 1.984-3.45 4.687-5.807 7.824-8.211C214 264 214 264 215 262" id="svg-layer-6" style="pointer-events: all;"/><path fill="#0A243F" d="M384 376h1l1 6 3-1 1 5 1-2h2v-6h1q.062 3.5 0 7l-1 1 3 4-1-2c-.07-2.04-.084-4.083-.062-6.125l.027-3.32L395 376h4l2 15 2-2-1 4-4 1v-2h-2l4 4 2-1c1.316 3.62.657 5.51-.812 9-6.548 17.18-7.454 39.939-2.094 57.605 1.522 5.904.898 11.926.594 17.957l-.147 3.616c-.249 5.666-.58 11.23-1.541 16.822h-2c-2.323 11.518-2.323 11.518-1.5 16.313C395 520 395 520 393 527l-94 1v-1l-11-1 4-1v-2l-8 1 1-3 2.152.035 2.786.028 2.777.035C295 521 295 521 296 520c2.164-.135 4.332-.204 6.5-.246l4.105-.095 2.177-.046c39.308-.89 39.308-.89 48.53-9.863 1.94-3.16 3.73-6.376 5.442-9.664 1.243-2.081 2.378-3.547 4.246-5.086l2.938-.562c3.429-1.61 3.734-2.056 5.187-5.375 1.75-5.048 2.926-10.224 4.063-15.438l.506-2.32c2.295-11.273 2.473-22.586 2.431-34.055l-.005-1.996c-.1-36.205-.1-36.205-7.097-49.977C374 383 374 383 374 380c3.786.54 5.554 2.117 8 5v2h2l-.562-1.562c-.592-3.297-.005-6.16.562-9.438" id="svg-layer-7" style="pointer-events: all;"/><path fill="#0A2640" d="M154 291c4.733 2.269 9.248 4.948 13.805 7.547 3.32 1.88 6.634 3.676 10.086 5.305A288 288 0 0 1 182 306l2.673 1.373c3.831 2.253 6.731 3.971 8.276 8.266.432 3.254.54 6.39.551 9.673q.136 3.721.273 7.442.05 2 .097 4c.184 6.905.675 13.794 1.111 20.686.23 3.702.442 7.404.652 11.107l.215 3.776L196 375l-2 1c-2.148-.893-2.148-.893-4.805-2.316l-2.941-1.559-3.129-1.687-6.305-3.352-3.057-1.63c-3.225-1.7-6.481-3.307-9.763-4.894l-2.672-1.382C159 358 159 358 156.734 357.133c-2.409-1.148-3.295-1.866-4.734-4.133a60 60 0 0 1-.2-7.297l.036-2.246q.042-2.434.101-4.868c.065-2.66.11-5.318.151-7.978.077-4.72.176-9.437.284-14.155q.099-4.412.185-8.825l.127-5.627.05-2.657c.152-6.118.152-6.118 1.266-8.347" id="svg-layer-8" style="pointer-events: all;"/><path fill="#0C2743" d="m418 231 3.125 2c5.904 2.968 12.427 2.855 18.875 2 1.688-.964 3.358-1.96 5-3h4l2 57 5-5c-1.384 4.428-3.842 7.627-6.66 11.23C448 297 448 297 447 299c-2.314.73-4.648 1.401-7 2v-2l-5 3 4 1-7 4v-2l-6-1v2a3611 3611 0 0 1-6.437 3l-3.622 1.688C413 312 413 312 412 312c.59-16.68 1.31-33.349 2.247-50.013q.194-3.486.375-6.972c.179-3.421.369-6.841.562-10.261l.158-3.153.171-2.9.14-2.541C416 234 416 234 418 231" id="svg-layer-9" style="pointer-events: all;"/><path fill="#0B2541" d="M450 296c.868 11.744 1.335 23.473 1.46 35.249q.04 2.902.123 5.806c.079 2.839.112 5.675.136 8.515l.1 2.605c-.012 3.547-.043 5.879-2.345 8.686A51 51 0 0 1 444 361l-2.309 1.617c-5.817 3.437-11.785 6.494-17.846 9.474-4.506 2.218-8.91 4.553-13.243 7.096C409 380 409 380 407 380c.496-9.96 1.025-19.916 1.605-29.87.274-4.746.49-9.489.657-14.24.569-12.87.569-12.87 3.199-17.413 2.387-2.086 4.639-3.174 7.539-4.477 2.317-1.188 4.618-2.403 6.92-3.617a451 451 0 0 1 5.036-2.602c5.733-2.946 10.566-6.127 15.427-10.383C449 296 449 296 450 296" id="svg-layer-10" style="pointer-events: all;"/><path fill="#0A2541" d="M154 232c2.567.628 5.086 1.318 7.625 2.063 8.339 2.042 15.48 1.14 23.375-2.063 3.259 3.259 3.11 7.37 3.389 11.812l.182 2.815.183 3.018.197 3.159q.206 3.315.406 6.63c.202 3.329.414 6.657.625 9.986.717 11.544 1.242 23.012 1.018 34.58-12.087-3.881-27.919-9.781-37-19-1.01-3.036-1.096-5.77-1.022-8.952l.061-2.972.082-3.185.072-3.279c.076-3.454.16-6.908.244-10.362q.08-3.514.159-7.027.194-8.611.404-17.223m22 7v17h4v-16z" id="svg-layer-11" style="pointer-events: all;"/><path fill="#D6D6E6" d="M295 111h8v3h2l1-2v2l2-2c2.164-.195 2.164-.195 4.625-.125l2.477.055L317 112c.043 1.666.04 3.334 0 5l-1 1 9.25 2.438 2.645.697c.422.11.422.11 2.558.674l2.349.618q3.095.805 6.198 1.573l1-6h8v2l-6 3v3l2.75.875C348 128 348 128 350.188 129.125 352 130 352 130 355 130l-2-2c3.862-1.15 5.81-1.612 9.469.27A115 115 0 0 1 369 133c-1.863 1.04-1.863 1.04-4 2-2.187-.625-2.187-.625-4-2-.75-2.125-.75-2.125-1-4h-2c.318 2.995.491 4.547 2.785 6.59l2.277 1.347 2.481 1.547L368 140c6.85 4.576 16.243 11.487 20 19h3l.25 2.25c.75 2.75.75 2.75 2.563 4.563 2.564 2.564 3.765 5.113 5.257 8.382C400 176 400 176 402 178l.813 2.5c1.607 4.738 3.89 9.064 6.187 13.5l2-2v2h2l1-2v3l-5 1 .875 2.957 1.125 3.856 1.125 3.832C413 210 413 210 413 213h27l-1 2h-31l1-6c-3.223-19.62-14.269-38.884-28-53l-2.008-2.203C359.135 132.693 330.61 122.135 302 121c-17.447-.414-34.279 3.39-50 11l-3.16 1.52c-11.527 5.866-21.31 13.402-30.133 22.863C217 158 217 158 215 158l-.707 1.574c-1.379 2.587-2.994 4.945-4.67 7.348-9.417 13.58-17.291 29.516-19.623 46.078l1 2h-31l-1-2h28c0-7 0-7-2-10l4 1 .563-3.5c1.779-8.177 5.71-16.045 9.437-23.5l-3-1-.375 2.938L195 182l-2 1v3h-2v-2h-2l2 5-5-1 4-10h2v2h2v-8h3l1 3 3-1c.688-2.062.688-2.062 1-4h-4l-2-3 1.438-1.375C199 164 199 164 200 162h3v2h2l-1-4 3 1v2a417 417 0 0 0 8.059-8.2c7.646-7.937 15.514-15.021 24.941-20.8h2l-1-8 2-1v3h2l1-3v4h-2l2 2a435 435 0 0 0 3.938-1.875l2.214-1.055C254 127 254 127 255 125h-5l1-5 2 3 1-6c3.27.564 4.826 1.5 7 4l-5 2v3l8-3v-2l3.25.125C271 121 271 121 272.844 120c2.892-1.341 5.236-1.194 8.406-1.125l3.266.055L287 119v-2l-9 1-2-6h15l-2 4 5 1 2-3h2v-2l-3 1z" id="svg-layer-12" style="pointer-events: all;"/><path fill="#3D5176" d="M220 115h4l-2 5c2-2 2-2 3-5l3 1 .25 2.875L229 122a89 89 0 0 0 4 2c1.75 3.125 1.75 3.125 3 6l1-3h2l-1 4h2c-.303 3.129-.53 4.587-2.934 6.703l-2.504 1.547c-9.326 6.134-19.32 14.387-25.562 23.75h-2l-2-2v3h-2v-2h-3l-2 5h-9l-1.367-6.055C187 159 187 159 185 157h-4c4.354-11.386 4.354-11.386 9-14h3l1-2 4 1v-3l-4-2a245 245 0 0 1 3.25-3.5l1.828-1.969C201 130 201 130 205 130v10l3-1v-5h2l-1-1.687c-1.176-2.72-1.367-4.377-1-7.313 1.5-2.312 1.5-2.312 3-4l7 1-.125-2.375C218 117 218 117 220 115" id="svg-layer-13" style="pointer-events: all;"/><path fill="#243C60" d="M182 150c1.125 3.75 1.125 3.75 0 6l1.813.188C186 157 186 157 187.75 159.25c1.305 2.871 1.516 4.641 1.25 7.75l2.75-.75c3.25-.25 3.25-.25 5.625 1.688L199 170l5-2c-1.477 5.662-1.477 5.662-4.125 7.375L198 176l-3-4-1 8h-2v-2h-2l-.375 2.25c-.58 2.551-1.362 4.477-2.625 6.75l3 1-1-4h2v2h2l-1-4h3v-7l4 2c-1.685 5.25-3.708 10.334-5.79 15.434A166 166 0 0 0 189 204h-3l2 2-1 7h-30l-1-2c.938-2.125.938-2.125 2-4l1 2h3v2l-4 1h6l1-3h2l-2-1v-2l-3 1-1-4c5.75-3 5.75-3 8-3-1.25-3.653-1.671-4.78-5-7q.64-2.161 1.313-4.312l.738-2.426c.997-2.376 2.135-3.49 3.949-5.262-.312-2.187-.312-2.187-1-4 6.875-1 6.875-1 8-1v-2h-3v-4h2v2h4l-1-4 4-1-1-5c-2.312.125-2.312.125-5 1a402 402 0 0 0-3 6c-2.687 1.375-2.687 1.375-5 2 1.38-4.72 3.353-8.572 5.938-12.75l1.052-1.746c1.815-2.933 3.093-4.56 6.01-6.504" id="svg-layer-14" style="pointer-events: all;"/><path fill="#1F3868" d="M235 257v1l-9 2c6.94-1.735 15.161-2.58 21.914.2 3.785 2.446 6.444 4.512 8.086 8.8.737 4.71.422 8.17-1.75 12.438-2.865 3.263-4.723 4.398-9.055 4.863-10.586.04-10.586.04-15.195-3.301-2.596-2.596-3.886-4.017-4.312-7.687C226 273 226 273 227 271c-2 2-2 2-2.375 5.75.12 4.393 1.482 6.888 4.375 10.25 4.266 3.535 8.687 3.609 14 4q2.782.274 5.563.563L253 292v1l-2.457.078c-10.582.542-18.875 2.854-27.543 8.922h-3l-.5-3.562c-1.166-5.543-3.877-10.094-6.844-14.856-2.897-4.952-3.006-7.983-1.656-13.582 2.5-2.812 2.5-2.812 5-5l1-3-2.875 1.938C211 266 211 266 209 267c1.523-4.264 4.1-5.873 8-8 5.99-2.004 11.732-2.199 18-2" id="svg-layer-15" style="pointer-events: all;"/><path fill="#0C2641" d="M161.704 213.958c31.664-.429 31.664-.429 37.296 3.042 2.252 3.94 2.331 7.529 2 12l-2 3-5-1-2-6c-2.187.125-2.187.125-5 1a173 173 0 0 0-5 6c-5.59 3.865-14.986 2.709-21.434 1.57-2.56-.892-4.22-2.004-5.64-4.328-.863-1.93-.863-1.93-1.926-5.242h-1l2 3c-.375 2.688-.375 2.688-1 5-3.637.93-5.377 1.305-8.812-.375-3.14-2.332-3.14-2.332-3.497-4.516-.241-4.423-.172-6.468 2.559-10.109 5.48-3.641 12.139-2.945 18.454-3.042" id="svg-layer-16" style="pointer-events: all;"/><path fill="#0C2643" d="M210 516c1.262 2.525 1.099 4.312 1.063 7.125l-.028 2.758L211 528c-2.812 1.406-5.14 1.12-8.286 1.114h-1.951c-2.132 0-4.264-.009-6.396-.016l-4.43-.005q-5.835-.006-11.67-.024-5.952-.014-11.904-.02-11.68-.016-23.363-.049v-12c4.525-.905 6.194-.971 10.457-.082 6.776 1.23 13.356 1.424 20.23 1.394l3.7-.001c8.39-.085 16.221-.883 24.39-2.752 3.182-.552 5.177-.586 8.223.441" id="svg-layer-17" style="pointer-events: all;"/><path fill="#122B4C" d="M268 95c2 1.312 2 1.312 4 3v3h3l1 3-4 1v3l-2 1-1-1-2 2 2 4c-2.918 1.945-4.625 2.453-8 3l2 1a78 78 0 0 1 2 5c-5.625 3-5.625 3-9 3l-1-6 2 1 3-1-6-3v6h-3l-1 2h5c-1 3-1 3-3.066 4.168l-2.496 1.02-2.504 1.042L245 132l-1-3-1-1-1-2 .688 2.813C243 132 243 132 241.563 133.875L240 135l-1-2 1-2h-2l1-4-2 1c-.625 2.063-.625 2.063-1 4-1.558-2.594-2.977-5.147-4-8 .75-3 .75-3 2-5l-1-1-1 4-3-1c.875-5.75.875-5.75 2-8l2.25.25C236 113 236 113 238 111s2-2 4.75-2.25l2.25.25 1-4c3 2 3 2 3.688 4.125L250 111l2-1 2-1v-2l-2-2 2.938-.375L258 104l1-2c2.313-.562 2.313-.562 5-1 1.335-.325 2.67-.655 4-1z" id="svg-layer-18" style="pointer-events: all;"/><path fill="#0B2540" d="m426.813 213.813 3.33.001c20.543.11 20.543.11 25.857 3.186v3l-7-2-3 3 5 1v1l-6 2 .25 2.813C445 231 445 231 443.48 232.676c-3.434 1.833-6.623 1.761-10.418 1.699l-2.13.035c-4.464-.025-7.454-.553-10.932-3.41-1.312-3.687-1.312-3.687-2-7-3.01-.934-3.867-1.044-7 0l-.812 2.5L409 229c-3 .938-3 .938-6 1-2-2-2-2-2.375-4.75.49-4.246 1.454-6.115 4.375-9.25 6.869-2.717 14.566-2.267 21.813-2.187M241 509c3.141.502 5.36 1.757 8.063 3.375 14.815 7.45 33.804 6.267 49.937 6.625-3.625 3-3.625 3-7 3v-2c-2.271.114-4.542.242-6.812.375l-3.833.21C278 521 278 521 275 523l1 3 23 1v1h-86v-8l2 1c2.636.1 5.24.142 7.875.125l2.303-.01c17.87-.162 17.87-.162 20.822-3.115-.389-3.013-1.265-4.397-3-7l-2 3c-.562-1.937-.562-1.937-1-4z" id="svg-layer-19" style="pointer-events: all;"/><path fill="#0A243E" d="m392 309 3 1c1.243 5.843.573 10.267-1 16l1.125-1.937c2.456-2.702 4.32-2.747 7.875-3.063-2.875 6.875-2.875 6.875-4 8h2l-.621 3.035-.817 4.027-.408 1.99c-2.4 11.885-2.457 22.917-1.154 34.948-1.875-3.561-2.953-7.112-4-11l-3 1-.375-2.312C390 358 390 358 388 355l-2 1c-.7-4.248-1.383-8.499-2.062-12.75l-.604-3.656-.557-3.516-.523-3.237c-.239-2.674-.073-4.324.746-6.841l.375-2.187L384 322l3-1c1.188-3.062 1.188-3.062 2-6h2z" id="svg-layer-20" style="pointer-events: all;"/><path fill="#122D51" d="M220.938 240.438C223 242 223 242 224 243c.04 2 .043 4 0 6l2-2c-.75 4.75-.75 4.75-3 7-1.91-.023-1.91-.023-4.062-.375C215 253 215 253 214 253c1.654 1.654 3.81 1.635 6.063 2.063l2.785.535L225 256c-3.462 2.308-7.069 3.998-10.82 5.781C212 263 212 263 211 265l4-2a271 271 0 0 1-2.812 3.5l-1.583 1.969C208.427 270.546 206.877 270 204 270c-2.669-5.38-3.521-9.646-3.5-15.625l-.086-2.234c-.015-4.219.222-5.699 3.004-9.082 5.484-4.373 10.984-5.82 17.52-2.621" id="svg-layer-21" style="pointer-events: all;"/><path fill="#324870" d="M301 148c.082 2.855.14 5.707.188 8.563l.076 2.423c.066 5.435-.934 9.02-3.264 14.014-.512 3.09-.512 3.09-.687 5.938l-.2 2.902L297 184h-8l-1-5-3-1c-1.937-2.906-2.554-4.404-2.437-7.852C284.224 161.988 292.056 148 301 148" id="svg-layer-22" style="pointer-events: all;"/><path fill="#2F456E" d="M302 148c6.932 3.422 12.077 7.224 16 14v3h2l1 6 4 1a252517525490692 252517525490692 0 0 1-5.957 5.469C317 179 317 179 314 179l-2-7-6 5c-5.282-9.173-4.377-18.79-4-29" id="svg-layer-23" style="pointer-events: all;"/><path fill="#D4D5E6" d="M269 276h2c1.19 3.716 1.34 7.121 1 11-2.062 3.569-3.414 4.764-7.25 6.313L262 294c6.126 3.304 10.152 4.741 17 3 2.215-1.203 2.215-1.203 4-3 .39-2.7.39-2.7.25-5.687l-.11-3.012L283 283c2.634 2.21 3.882 3.605 4.875 6.938.134 3.28-.42 5.152-1.875 8.062h-2v2l-11 1c6.192 7.802 6.192 7.802 10.313 8.813L286 310l2 3-8-1 .5 1.5c1.578 7.892-.213 13.34-3.5 20.5l-2-1c.547-3.375 1.055-5.082 3-8 1.263-7.992-.512-14.361-5-21-4.6-4.843-10.113-6.058-16.625-6.375-10.292.25-19.33 4.138-27.375 10.375 2.09-4.897 5.316-6.73 10-9 6.211-2.19 12.458-3.383 19-4a816 816 0 0 0-7.562-.125l-2.135-.05c-4.803-.045-8.66.836-13.303 2.175-2.201-.442-2.201-.442-4-1 7.506-2.93 14.547-3.679 22.535-4.172 4.879-.367 8.507-.662 12.465-3.828 3.183-3.952 3.293-7.015 3-12" id="svg-layer-24" style="pointer-events: all;"/><path fill="#081F36" d="M387 352c3.861 2.574 3.943 4.61 5 9h3c1.904 6.8 3.409 12.92 3 20l-2-4v14c-2-1.312-2-1.312-4-3v-3l-1-1-1 3-2-5h-2l-1 2c-.207-10.898-.157-21.271 2-32" id="svg-layer-25" style="pointer-events: all;"/><path fill="#0B2542" d="m397 509 2.883.402c11.684 1.51 23.328 1.967 35.096 2.168l3.798.086 3.414.057C445 512 445 512 448 514c-4.936 2.385-8.505 3.377-14.078 3.363l-1.976.002a394 394 0 0 1-4.114-.029c-2.063-.023-4.125-.02-6.187-.014-20.04-.039-20.04-.039-24.439-3.895L396 512z" id="svg-layer-26" style="pointer-events: all;"/><path fill="#0D2848" d="M195 339h2c1.254 1.426 1.254 1.426 2.563 3.313l1.316 1.863c2.459 4.001 2.333 8.014 2.437 12.554l.063 2.274q.097 3.593.184 7.183l.13 4.874q.16 5.97.307 11.939c-3.367-1.393-5.117-2.869-7-6-.492-2.064-.492-2.064-.652-4.336l-.195-2.66c-.299-5.874-.53-11.749-.715-17.629l-.131-3.91q-.159-4.733-.307-9.465" id="svg-layer-27" style="pointer-events: all;"/><path fill="#E8E6F3" d="m185 227 .375 1.875C186 231 186 231 188 233c1.988.398 3.99.738 6 1l-1 2h-4l.152 1.676c1.457 16.383 2.392 32.766 3.15 49.193l.12 2.497q.11 2.324.21 4.647c.195 4.057.441 8.025 1.368 11.987l2 1-1 2-2.937-1.469-1.94-.969-4.293-2.151a802 802 0 0 0-11.174-5.513C156.562 290.123 156.562 290.123 154 285c3.473 1.665 6.746 3.606 10.063 5.563 5.835 3.393 11.819 6.36 17.933 9.214A2932.668 2932.668 0 0 0 191 304q-.716-12.558-1.461-25.114-.346-5.831-.68-11.662-.32-5.633-.66-11.263-.128-2.145-.247-4.289c-.111-2.008-.234-4.016-.358-6.024l-.202-3.459c-.403-3.282-1.24-6.097-2.392-9.189l-1.617.656c-9.409 3.516-17.12 3.103-26.383-.656 3-1 3-1 6 0 2.455.147 4.915.221 7.375.25l3.96.078c3.845-.344 5.65-.982 8.665-3.328z" id="svg-layer-28" style="pointer-events: all;"/><path fill="#1A3359" d="M233.27 104.863 235 106l-1 3h-3l-1 2-3-1v2c-1.75 2.212-2.916 2.972-5.625 3.875L219 117c-.812 2.625-.812 2.625-1 5l-3.375-.187L211 122c-2.236 3.353-2.173 3.907-1.625 7.688l.336 2.449L210 134h-2l1 5-4 1c-1.125-7.75-1.125-7.75 0-10-3.083 1.199-6.063 2.477-9 4 1.303-8.32 11.06-14.001 17.438-18.687 2.501-1.8 5.024-3.566 7.562-5.313l3.047-2.102c6.363-4.122 6.363-4.122 9.223-3.035" id="svg-layer-29" style="pointer-events: all;"/><path fill="#687793" d="m396 500 1 3c9.765 2.01 19.326 2.418 29.25 2.625l4.605.117q5.572.142 11.145.258v1l-24 1c2.958 1.48 5.955 1.122 9.195 1.098l2.144-.005a2159 2159 0 0 0 6.786-.03q2.299-.009 4.598-.014 5.638-.017 11.277-.049c-7.387 4.14-17.005 3.193-25.25 3.188l-3.039.001c-6.801-.048-13.267-.548-19.969-1.751-2.634-.42-5.08-.516-7.742-.438l-1 8h-1c-1.214-6.95-.72-11.5 2-18" id="svg-layer-30" style="pointer-events: all;"/><path fill="#8893AB" d="M355 361v2h-2v9l6-3v3l1 2h6l1-2c4.274 1.583 6.265 4.506 9 8h-2l.91 1.828 1.152 2.422 1.16 2.39c.864 2.62.708 3.809-.222 6.36l-1.172-2.52-1.578-3.293-1.547-3.269c-1.693-2.901-2.78-4.323-5.703-5.918-2.737-.375-5.22-.139-8 0-.75 3.663-1.238 6.424 0 10l-3-2 2 4 10-1-1 3c-7.178 1.316-7.178 1.316-10.437.063-2.347-3.098-2.777-6.276-2.563-10.063 1.438-3.5 1.438-3.5 3-6l-3.375-.75C350 374 350 374 348.563 372.188c-.95-3.692-1.16-6.085.687-9.5C351 361 351 361 355 361" id="svg-layer-31" style="pointer-events: all;"/><path fill="#132E55" d="M383 263c6.343 2.883 10.478 8.653 13.3 14.86 4.77 12.835 4.17 22.964.7 36.14-2.016-2.285-2.016-2.285-4-5 .25-3.437.25-3.437.621-5.512 2.024-13.29-.392-24.827-8.351-35.648C384 266 384 266 383 263" id="svg-layer-32" style="pointer-events: all;"/><path fill="#0A233D" d="M240 377c2.375 1.563 2.375 1.563 4 4 0 3.983-.46 6.228-2.75 9.5-2.25 1.5-2.25 1.5-5 1.25L234 391l-1 3-4-2 1 3h-2c-2.52-6.524-2.52-6.524-1-10 3.29-5.672 6.104-9.034 13-8" id="svg-layer-33" style="pointer-events: all;"/><path fill="#DFDEED" d="m227 308 2 1-1.207 1.441c-7.34 9.698-8.459 21.694-7.793 33.559a310 310 0 0 0 8-17h2c-.103 5.553-.942 8.207-4.5 12.5-6.895 9.26-4.783 21.816-3.264 32.624.244 1.627.503 3.252.764 4.876l1.875-2.375C227 372 227 372 229 370l3 2-2.687 1.875c-4.249 3.481-6.146 8.188-8.313 13.125h-1l-.076-1.969q-.177-4.484-.362-8.969l-.119-3.095c-.187-4.52-.404-9-.963-13.49-1.666-13.904-3.336-33.857 4.583-46.164L225 311z" id="svg-layer-34" style="pointer-events: all;"/><path fill="#152F5A" d="M325 171c0 3 0 3-1.375 4.625-2.4 3.507-2.827 7.256-3.625 11.375-.325 1.335-.655 2.67-1 4-11.036 1.486-23.297 2.568-34-1l1-2c3.418-.927 6.773-1.172 10.3-1.316l2.96-.127 3.053-.12 3.11-.13q3.788-.159 7.577-.307l1.277-3.258c1.338-3.118 2.785-5.273 5.286-7.617l1.816-1.742C323 172 323 172 325 171" id="svg-layer-35" style="pointer-events: all;"/><path fill="#0B2541" d="M379 349c3.786 3.786 5.25 6.18 5.266 11.52l.007 2.6-.023 2.692.023 2.659c-.015 5.23-.571 9.579-2.273 14.529-6.582-6.049-8.44-11.325-9-20h3c-1 2-1 2-2 3h3v-6l2-1z" id="svg-layer-36" style="pointer-events: all;"/><path fill="#2E4570" d="M300 169h2c3.444 9.41 3.444 9.41 3 14 1-2 1-2 1.813-4.062C308 177 308 177 310.063 176.188L312 176c1 1 1 1 1.063 4.063L313 183l-2 1 3 2c-1.912 1.912-5.336 1.244-7.879 1.316l-2.08.063q-3.302.097-6.603.184l-4.467.13q-5.486.161-10.971.307c2.721-2.721 4.848-2.607 8.625-3.125l3.602-.508L297 184l-.187-3c-.028-4.469 1.466-7.913 3.187-12" id="svg-layer-37" style="pointer-events: all;"/><path fill="#E8E6F3" d="M300 346h2c2.277 8.036 2.277 8.036 1 12l-1-3v12h6l-2 2h-4v11l.938-3.875c.796-2.21.796-2.21 2.062-4.125 2.942-1.304 5.807-1.732 9-2l-1 2 5 2-1 2-6-2-1 2-1-3h-3l.473 2.047.59 2.703.597 2.672c.338 2.565.152 4.149-.66 6.578l-2-7-4 10h-2l-1-5h2l-1-15-11-2v2c-6.152-.586-6.152-.586-8-1l-1-2c6.656-1.238 13.247-1.091 20-1q.039-2.625.063-5.25l.035-2.953C299 355 299 355 298.438 352.812c-.648-2.68.417-4.387 1.562-6.812" id="svg-layer-38" style="pointer-events: all;"/><path fill="#D8D8E8" d="m386.938 235.688 3.09-.051c4.999.61 8.065 3.074 11.222 6.863l1.516 1.781c3.126 4.353 2.975 9.617 2.234 14.719-1.7 4.498-3.76 8.748-6 13l-2-1 1.059-1.906c2.925-5.504 4.595-9.863 4.941-16.094l-2 3-.078-1.977c-.368-5.669-.85-9.736-4.922-14.023-5.33-2.358-9.459-2.34-15-1-3 2.25-3 2.25-5 5-.375 2.75-.375 2.75 0 5 1 1 1 1 3.066 1.098l2.497-.036 2.503-.027L386 250l3-6h1c-.612 7.469-.612 7.469-2.266 9.734-2.779 2.028-5.233 1.74-8.57 1.61C377 255 377 255 374.438 253.438c-2.02-3.423-1.979-5.518-1.438-9.438 3.488-6.602 6.619-8.285 13.938-8.312" id="svg-layer-39" style="pointer-events: all;"/><path fill="#0C2441" d="M198 395c4.694 4.12 5.768 10.003 6.236 16.047a226 226 0 0 1-.048 9.515l-.042 3.307q-.054 4.065-.146 8.131c0 1.364.059 2.727.105 4.09l.083 3.848.105 3.84L204 447l-3 2c-1.399-17.993-2.442-35.961-3-54" id="svg-layer-40" style="pointer-events: all;"/><path fill="#E8E6F3" d="M204 413h2q.075 8.056.11 16.113.015 2.736.04 5.47c.178 19.02.178 19.02-2.15 27.417l-1 1c-.017 2.74.029 5.453.121 8.191l.072 2.485c.076 2.629.16 5.258.244 7.887q.08 2.666.159 5.333.195 6.553.404 13.104l4 1v5l-2 1 1-5-2.187 1c-2.83 1.006-4.842 1.17-7.813 1 3-2 3-2 5-2l-.114-1.996q-.587-10.318-1.168-20.636-.216-3.847-.436-7.693-.315-5.54-.626-11.081l-.199-3.454c-.318-5.725-.53-11.407-.457-17.14h2v20h2c1.102-10.096 1.117-20.111 1.063-30.25q-.008-2.447-.014-4.895-.017-5.927-.049-11.855m0 94 2 1Z" id="svg-layer-41" style="pointer-events: all;"/><path fill="#06192C" d="M454 519a91 91 0 0 1 4 4v2l-59 1v-2l-2-2 2.03-.025q10.439-.13 20.876-.292 3.9-.058 7.796-.105c3.731-.045 7.462-.103 11.193-.164l3.532-.035 3.275-.06 2.887-.04C451 521 451 521 454 519" id="svg-layer-42" style="pointer-events: all;"/><path fill="#082037" d="M425 188c3 1.625 3 1.625 6 4 .188 3.063.188 3.063 0 6 1.5 1.875 1.5 1.875 3 3l-1 1 5 1c.089 3.199-.09 5.927-1 9h-6v-2h-7l-1 2-1-4 3-2-2-1 5-10h-2c-1.062-2.375-1.062-2.375-2-5z" id="svg-layer-43" style="pointer-events: all;"/><path fill="#18325D" d="M194 316c5.28 4.376 7.424 9.74 10 16h1v45h-1v-31h-2a364 364 0 0 1-5-14l-1-2h-2z" id="svg-layer-44" style="pointer-events: all;"/><path fill="#08213A" d="m157.829 511.88 2.415.006h2.73l2.967.016 3.023.005c3.2.005 6.399.018 9.599.03q3.244.009 6.49.014 7.974.017 15.947.049v2c-5.107 2.483-9.487 3.542-15.187 3.75l-2.31.11c-9.186.342-18.34-.238-27.503-.86-.562-1.937-.562-1.937-1-4 1-1 1-1 2.829-1.12" id="svg-layer-45" style="pointer-events: all;"/><path fill="#E1E0EE" d="M364 303c13.895 10.853 19.419 25.081 21.656 42.215.933 10.267.558 20.552-.656 30.785h-1l.027-3.953c-.123-11.502-1.206-18.568-8.027-28.047-.98-2.942-1.165-4.99-1.187-8.062l-.043-2.66C375 331 375 331 377 329l.77 3.797q.52 2.476 1.043 4.953l.501 2.5c1.613 7.545 1.613 7.545 4.686 10.75-2.057-16.928-5.394-31.843-18.21-44.117C364 305 364 305 364 303" id="svg-layer-46" style="pointer-events: all;"/><path fill="#536584" d="m142 272 1.625 2.063L146 277l1.32 1.68c9.691 11.915 24.586 18.95 38.68 24.32v4c2.5 2.75 2.5 2.75 5 5-3.293-1.217-5.982-2.561-8.812-4.625-4.914-3.38-10.137-5.938-15.515-8.483C156.62 294.057 147.043 285.085 142 275z" id="svg-layer-47" style="pointer-events: all;"/><path fill="#0B2643" d="m396 516 3.637.402c12.446 1.334 24.856 2.12 37.363 2.598l-1 3-32 1v1h-5v2l-3 1c-1.06-4.005-.756-6.956 0-11" id="svg-layer-48" style="pointer-events: all;"/><path fill="#5B6E98" d="M301 352c2 3 2 3 2 6l3-1 1 5 3-1 2 3c3.16 2.031 6.314 2.497 10 3l-1 2a188 188 0 0 1-5.627 1.09c-9.56 1.741-9.56 1.741-12.1 5.394-.713 2.553-1.152 4.871-1.273 7.516h-1q-.04-2.937-.062-5.875l-.036-3.305C301 371 301 371 302 369c2.563-.625 2.563-.625 5-1l-2.437-.375L302 367c-1.442-2.884-1.094-5.417-1.062-8.625l.027-3.602z" id="svg-layer-49" style="pointer-events: all;"/><path fill="#98A1B8" d="m298 201 2 1-2 2.063C296 207 296 207 296 214h22l1 2-1 3-23 1v2h-5c.176-8.725 1.745-14.745 8-21" id="svg-layer-50" style="pointer-events: all;"/><path fill="#0B2542" d="M458 514c1.409 4.226 1 7.109 1 12h-59v-1h58l-3-5-1.516.992c-3.402 1.38-6.628 1.222-10.234 1.133l-2.113-.027c-1.713-.024-3.425-.06-5.137-.098v-4l3.867-.621 5.008-.817 2.55-.408 2.442-.4 2.254-.365c2.197-.455 3.607-1.389 5.879-1.389" id="svg-layer-51" style="pointer-events: all;"/><path fill="#E6E4F2" d="m406 214 2 1-2.437 2.375c-2.822 2.89-3.457 3.626-3.875 7.563C402 228 402 228 403.5 229.813c3.602 1.71 6.499 1.996 10.5 2.187l3-2-1-5h-5v4l2 1-4-1c.188-2.375.188-2.375 1-5 2.648-1.646 4.112-2.178 7.188-1.562 2.69 2.319 2.853 5.206 3.812 8.562 3.539 2.723 7.795 2.332 12.063 2.313l2.181.048c5.22.005 5.22.005 7.748-1.72 1.38-2.247 1.075-4.047 1.008-6.641 2-2 2-2 4.625-2.125L451 223l1 4-2-2h-3l-1 5 3 1-1.687.813C445 233 445 233 442.78 234.547c-5.216 2.725-11.054 2.065-16.781 1.453-3.074-1.03-5.248-2.239-8-4l-2 8h-1v-6l-3.625.25c-4.513-.024-7.005-1.12-10.375-4.25-1.625-3.312-1.625-3.312-2-7 1.405-4.027 3.424-6.616 7-9" id="svg-layer-52" style="pointer-events: all;"/><path fill="#0B243F" d="m309.188 222.75 3.08-.062c6.313-.033 10.975.692 16.732 3.312-2.052 2.248-3.007 3.002-6 4-3.625.125-3.625.125-7 0l-1-1a81 81 0 0 0-4.691-.316l-2.862-.127-3.01-.12-3.021-.13q-3.708-.16-7.416-.307c.313-1.937.313-1.937 1-4 4.651-1.55 9.315-1.226 14.188-1.25" id="svg-layer-53" style="pointer-events: all;"/><path fill="#8A95AD" d="M257 94v2l2.012-.437 2.675-.563 2.637-.562c2.613-.428 5.034-.514 7.676-.438l.813 2.938L274 100l3 1v4l-2-1v-3l-4 1-.437-2.437C270 97 270 97 269 96v5l-2.125.375c-3.058.665-5.913 1.618-8.875 2.625-2.327.69-4.662 1.345-7 2l-1-5h-2v-2h4v-4c2-1 2-1 5-1" id="svg-layer-54" style="pointer-events: all;"/><path fill="#B6BBCF" d="M237 331c5.078 4.392 7.572 8.734 8.25 15.492.127 5.213-.54 9.593-2.25 14.508l2 2c-5.75 5-5.75 5-8 5l-1.312 1.438c-2.139 1.98-3.86 2.087-6.688 2.562.595-12.67.595-12.67 4-18h2l-1 11c4-1 4-1 6.188-4 2.758-5.288 2.944-10.579 2.625-16.437C242 342 242 342 240 340.75l-2-.75c-1.478-2.957-1.06-5.742-1-9" id="svg-layer-55" style="pointer-events: all;"/><path fill="#E5E3F1" d="M325 170h4c-.964 2.15-1.71 3.747-3.5 5.313-2.327 2.617-2.835 5.302-3.5 8.687l2 3c-.062 2.063-.062 2.063-1 4-5.926 3.017-12.261 2.33-18.75 2.313l-3.75.048c-7.173.004-12.85-.633-19.5-3.361v-4c-.43-3.496-.885-6.655-2-10l3 1c1.188 3.563 1.188 3.563 2 7l2.125-.562c3.214-.49 5.71-.1 8.875.562v1l-10 2h6v1l-5 1c5.108 1.676 9.378 2.246 14.813 2.188l2.103-.02c5.4-.08 10.733-.448 16.084-1.168l-4-3 2-2h3l.25-3.187c.813-4.131 2.061-5.69 4.75-8.813z" id="svg-layer-56" style="pointer-events: all;"/><path fill="#0D2645" d="M289 229c3.77-.058 7.541-.094 11.313-.125 1.071-.017 2.143-.034 3.248-.05l3.115-.02 2.872-.032C312 229 312 229 315 231v4c-4.103.226-8.208.428-12.312.625l-3.538.195-3.388.157-3.127.158C290 236 290 236 287 234z" id="svg-layer-57" style="pointer-events: all;"/><path fill="#E8E6F3" d="M274 517h66v2c-8.58.858-17.067 1.158-25.687 1.125l-3.769-.006c-12.195-.056-24.366-.51-36.544-1.119z" id="svg-layer-58" style="pointer-events: all;"/><path fill="#09213A" d="M362.688 376.625c3.568.051 4.424.447 7.625 2.5 2.705 2.894 4.342 5.156 5.687 8.875-.312 2.375-.312 2.375-1 4h-6l1-4-2.687.188c-3.803-.216-5.462-.663-8.313-3.188-.875-3.625-.875-3.625-1-7 1-1 1-1 4.688-1.375" id="svg-layer-59" style="pointer-events: all;"/><path fill="#E6E4F1" d="M326 274h2v2h-2v10l1 1 1-2 1 3c2.25 1.063 2.25 1.063 5 2l2.223.973c3.293 1.218 6.507 1.793 9.964 2.402 6.16 1.159 12.324 2.482 17.813 5.625l2 3h-3l1 2a356 356 0 0 1-6.402-3.254l-2.536-1.308-2.527-1.317c-7.825-3.46-15.523-2.156-23.535-.121v-2l5-2-1.645-.734C324.958 289.8 324.958 289.8 323 286c-1.024-3.071-1.13-4.57-.187-7.687C324 276 324 276 326 274" id="svg-layer-60" style="pointer-events: all;"/><path fill="#DCDBEA" d="M309 282c1 3 1 3 1.25 5.375 1.128 3.947 2.37 5.22 5.75 7.625 4.303 1.012 8.604 1.569 13 2v2l-2.312 1.688c-3.374 2.902-4.178 5.179-5.688 9.312l-2-1-1.75.938c-3 1.416-4.961 1.465-8.25 1.062-2.875-1.687-2.875-1.687-5-4-.312-2.75-.312-2.75 0-5l1.563 1.938c3.194 2.702 5.288 2.919 9.437 3.062 3.313-.687 3.313-.687 6-2 1.313-2 1.313-2 2-4l1-2-2.012.14c-7.24.297-7.24.297-10.988-1.89-4.062-4.57-4.062-4.57-3.926-8.246.62-5.698.62-5.698 1.926-7.004" id="svg-layer-61" style="pointer-events: all;"/><path fill="#0B2440" d="M306 294c2 1 2 1 4.5 2.5 4.484 1.922 8.668 2.223 13.5 2.5-1.611 3.356-3.025 5.669-6 8-3.93 1.072-6.085 1.378-9.875-.187-2.29-1.954-2.82-2.869-3.125-5.813h-3c0-2 0-2 1.438-3.5L305 296z" id="svg-layer-62" style="pointer-events: all;"/><path fill="#E8E6F3" d="M402 460c.113 6.65-.032 13.24-.5 19.875-.519 7.388-.604 14.717-.5 22.125 11.113 3.201 23.891 2.13 35.375 2.063q2.289-.009 4.578-.014 5.524-.017 11.047-.049c-3.884 2.595-8.006 2.306-12.5 2.3l-2.52.014q-2.642.009-5.285.002c-2.658-.003-5.315.02-7.972.045-9.311.033-17.794-.363-26.723-3.361l.184-2.32q.412-5.277.816-10.555c.095-1.204.19-2.408.29-3.648 1.443-18.978 1.443-18.978-.29-25.477 3-1 3-1 4-1" id="svg-layer-63" style="pointer-events: all;"/><path fill="#7D8AA2" d="M352 313c3 2 3 2 3.938 5 .527 5.02-1.445 9.718-3.938 14-3.284 2.909-5.622 3.595-10 4l-2.328.23c-5.8.33-9.352-.611-14.176-3.843C324 331 324 331 323 328a68 68 0 0 1 8.375 2.063c6.707 1.734 12.567 1.348 18.625-2.063 2.435-2.816 2.943-4.43 3.313-8.125C353 317 353 317 351 314z" id="svg-layer-64" style="pointer-events: all;"/><path fill="#0B2441" d="M158 361c6.837 1.289 12.718 3.348 19 6.313l2.598 1.146c6.15 2.88 6.15 2.88 7.464 6.334L187 377c-6.62-.477-11.924-2.922-17.875-5.75l-2.914-1.305-2.766-1.304-2.515-1.171C159 366 159 366 158.222 363.335z" id="svg-layer-65" style="pointer-events: all;"/><path fill="#071D32" d="M376 416h1l1 6 2-2v44h-4z" id="svg-layer-66" style="pointer-events: all;"/><path fill="#0A223C" d="M422 377c-.105 1.73-.105 1.73-1 4a81 81 0 0 1-6.312 4.313C409.605 388.61 406.3 391.309 404 397c-2.875-.25-2.875-.25-6-1-1.375-2.062-1.375-2.062-2-4h2v2c1.875-.562 1.875-.562 4-2l.75-3.25c1.732-5.195 4.77-6.887 9.25-9.75l2.688-1.937c2.864-1.317 4.353-.993 7.312-.063" id="svg-layer-67" style="pointer-events: all;"/><path fill="#E5E3F1" d="M251.96 260.355c3.711 3.376 5.273 6.62 6.04 11.645-.022 6.44-1.214 11.008-5.687 15.813L251 289l-5-2c2-2 2-2 4.5-3.375 2.748-1.787 3.319-2.649 4.5-5.625.572-4.156.422-7.882-1.062-11.812-3.858-4.356-6.735-5.991-12.485-6.504-6.6-.098-12.195.3-18.453 2.316 2.052-2.248 3.007-3.002 6-4l-9 1c7.927-7.927 23.816-4.274 31.96 1.355" id="svg-layer-68" style="pointer-events: all;"/><path fill="#808CA9" d="m210 272 3 12-4-4c.283 5.093 1.121 8.56 3.563 13.063 2.235 4.187 3.028 7.114 2.437 11.937l-1 3c-1.895-.234-1.895-.234-4-1-1.012-1.89-1.012-1.89-1.687-4.25l-.7-2.328c-2.401-9.484-2.405-19.672 2.387-28.422" id="svg-layer-69" style="pointer-events: all;"/><path fill="#E8E6F3" d="m412 318 2 1-2 2a98 98 0 0 0-1.125 6.625l-.508 3.602L410 334h-1l-1-9-2.312 3.5-1.301 1.969c-3.457 6.31-4.902 12.408-5.574 19.531l-.249 2.348A687 687 0 0 0 398 358l4-4c-.523 2.763-1.109 5.326-2 8a99 99 0 0 0 .121 5.543l.147 3.252.17 3.392.158 3.428q.194 4.192.404 8.385c-1.538-2.805-2.365-5.222-2.852-8.379l-.392-2.525-.381-2.659-.393-2.739c-2.144-15.617-1.438-31.386 8.018-44.698a70.4 70.4 0 0 1 7-7" id="svg-layer-70" style="pointer-events: all;"/><path fill="#E6E4F2" d="M415 240h1c.266 13.391-.575 26.647-1.5 40q-.324 4.744-.642 9.488-.195 2.925-.4 5.85A196 196 0 0 0 413 311l3 1-5 1v2l-4-1 2-1c.95-4.21 1.22-8.424 1.465-12.724l.233-3.993.118-2.11q.185-3.284.38-6.568.544-9.33 1.075-18.66.327-5.72.664-11.44.127-2.18.25-4.36.169-3.034.35-6.068l.2-3.492C414 241 414 241 415 240" id="svg-layer-71" style="pointer-events: all;"/><path fill="#E7E5F2" d="M377.797 257.844A63 63 0 0 1 386 263l-2 2 1.242 1.61 1.633 2.14 1.617 2.11c1.425 2.022 2.617 3.832 3.508 6.14l-1 3-2-1-2 7c-1-3-1-3 0-5.312 1.27-3.415.876-5.169 0-8.688-3.866-6.498-8.642-11.798-16-14-6.396-1.622-12.169-1.25-18 2-4.426 4.018-6.966 7.661-7.562 13.625l-.254 2.477L345 278c-2-2-2-2-2.152-3.918.555-5.867 1.858-9.932 6.152-14.082 8.755-7.072 18.87-6.64 28.797-2.156" id="svg-layer-72" style="pointer-events: all;"/><path fill="#8994AF" d="M202 243c0 2.255-.028 4.51-.07 6.766l-.055 4.484c-.017.739-.034 1.477-.05 2.238-.044 4.899.613 8.864 2.175 13.512l4-2-.937 2.313A111 111 0 0 0 205 276c-2.312 0-2.312 0-5-1-4.336-8.828-4.366-15.886-1.984-25.266.98-2.721 2.124-4.54 3.984-6.734" id="svg-layer-73" style="pointer-events: all;"/><path fill="#E8E6F3" d="m418 382 2 1-2.336 1.61-3.039 2.14-3.023 2.11c-3.342 2.749-4.394 4.623-4.98 8.91l-.185 3.22-.222 3.661-.215 3.943-.246 4.057c-.261 4.282-.509 8.566-.754 12.849-.285 4.965-.575 9.93-.88 14.893-.118 1.985-.227 3.97-.335 5.956l-.223 3.66-.183 3.221c-.369 2.695-1.001 4.449-2.379 6.77-.286-14.025.731-27.878 1.794-41.854q.329-4.395.647-8.79l.215-2.718.182-2.512.168-2.202C404 400 404 400 403 397c3.12-7.121 8.397-11.258 15-15" id="svg-layer-74" style="pointer-events: all;"/><path fill="#0C2542" d="M252 96v3h-4v2h2l.25 1.875c.75 2.125.75 2.125 2.813 3.375L255 107l-2 5-3-1-1 2v-3l-2-1 1-2c-1.562-1.562-1.562-1.562-4-3-3.75.313-3.75.313-7 1l-1 7-4-1v-2l2-1-1-4q3.9-2.01 7.813-4l2.236-1.156 2.158-1.094 1.984-1.016C249 96 249 96 252 96" id="svg-layer-75" style="pointer-events: all;"/><path fill="#0A223C" d="M406 360c.088 3.229.14 6.458.188 9.688l.076 2.763c.093 8.558.093 8.558-3.264 12.549l-2 1q-.509-3.75-1-7.5c-.095-.696-.19-1.392-.29-2.11-.626-4.837-.798-9.512-.71-14.39 5.875-2 5.875-2 7-2" id="svg-layer-76" style="pointer-events: all;"/><path fill="#334865" d="M272 300q2.687-.079 5.375-.125l3.023-.07C283 300 283 300 285 302v3c3 0 3 0 6-1l1-3c1 1 1 1 1.25 3.813-.276 3.515-.636 4.844-3.25 7.187-2.687.25-2.687.25-5 0v-1l-2.562-.5c-4.733-2.065-7.393-5.4-10.438-9.5z" id="svg-layer-77" style="pointer-events: all;"/><path fill="#E6E4F1" d="M357 329h2l.028 1.813c.568 28.954.568 28.954 9.972 40.187l-2 3-1.172-2.082-1.578-2.73-1.547-2.708c-1.712-2.494-3.125-3.925-5.703-5.48-2.75-.187-2.75-.187-5 0l-.875 3.25c-.853 2.844-1.689 5.185-3.125 7.75-1-1-1-1-1.25-4.812.057-2.632.26-4.212 1.25-6.688 3.247-2.435 6.01-1.817 10-1.5l2 1c-.36-1.23-.722-2.46-1.094-3.727l-1.406-4.898-.723-2.45c-1.26-4.43-2.078-8.268-1.777-12.925h1v5h2c-.75-4.75-.75-4.75-3-7z" id="svg-layer-78" style="pointer-events: all;"/><path fill="#DBDBEA" d="M191 312c5.987 2.823 9.383 8.004 11.875 14.063 1.272 3.755 1.371 6.997 1.125 10.937h-1l-.48-2.344c-1.538-6.862-3.44-11.923-7.52-17.656l-1 13h2l1-2c1.834 5.967 3.539 11.93 5 18a141 141 0 0 1-5-5v-2h-2v5c-2.357-3.535-2.376-5.432-2.633-9.637l-.254-3.935-.238-4.115q-.13-2.076-.262-4.15A2204 2204 0 0 1 191 312" id="svg-layer-79" style="pointer-events: all;"/><path fill="#142F55" d="M314 89c7.504-.775 14.263.554 21.5 2.375l2.68.67c3.788.993 6.523 1.757 9.82 3.955l-2 2c-2.348-.277-2.348-.277-5.062-.937A97 97 0 0 0 336 96c-1.64 1.64-1.601 3.778-2 6-2.114-2.552-3.905-4.797-5.312-7.812L327 92c-3.687-.312-3.687-.312-7 0l-1 4h-3l-.437-2.375C315 91 315 91 314 89" id="svg-layer-80" style="pointer-events: all;"/><path fill="#D6D7E7" d="M300 142h2l.25 2.375c.75 2.625.75 2.625 2.688 3.75L307 149l2 3a56.5 56.5 0 0 1-7-4c.41 20.153.41 20.153 5 28l1.375-2 1.625-2h2c1.46 2.647 2 3.894 2 7h2l-2 5 2 1h-5l-1-2h3l-1-6c-1.875.188-1.875.188-4 1-1.25 2.563-1.25 2.563-2 5l2 1-4-1-.184-1.793c-.436-4.117-.903-8.162-1.816-12.207h-2l-2 8c-1.098-4.394-.561-5.123 1.252-8.989 1.376-3.701 1.325-7.537 1.435-11.448l.104-2.506c.082-2.019.147-4.038.209-6.057l-3-1z" id="svg-layer-81" style="pointer-events: all;"/><path fill="#E8E6F3" d="M380 467c1.352 4.057.28 7.22-.687 11.25l-.49 2.238c-1.204 5.11-2.86 9.157-5.823 13.512a161 161 0 0 1-7 3c-1.562 2.125-1.562 2.125-3 5-4.449 7.575-9.27 13.473-18 16-2.812.125-2.812.125-5 0 1-2 1-2 4.625-3.312 9.193-3.387 12.523-7.954 16.992-16.532 2.433-3.223 3.412-3.78 6.922-5.36 2.917-1.479 4.204-2.304 5.734-5.23.912-2.923 1.61-5.816 2.227-8.816q.7-3.008 1.406-6.016l.573-2.68C379 468 379 468 380 467" id="svg-layer-82" style="pointer-events: all;"/><path fill="#0C2642" d="m449 503 8 1c-3.285 3.66-5.135 5.368-10 6-4.518.244-9.038.231-13.562.25l-3.733.063-3.584.015-3.268.028c-3.171-.396-4.524-1.226-6.853-3.356l2.276-.06c3.429-.096 6.858-.205 10.286-.315 1.182-.03 2.363-.062 3.58-.094 5.946-.2 11.245-.503 16.858-2.531z" id="svg-layer-83" style="pointer-events: all;"/><path fill="#60708D" d="M395 125c3.22.957 4.712 1.594 6.688 4.375L403 132l1.188 2.125C405 136 405 136 405 139c-2-1-2-1-5-3l2 6c-3.875-1.75-3.875-1.75-5-4l-2.312.25c-2.688-.25-2.688-.25-4.563-2-1.125-2.25-1.125-2.25-.812-4.5L390 130l7-1-2-1z" id="svg-layer-84" style="pointer-events: all;"/><path fill="#E8E6F3" d="M300 222c3.812-.029 7.625-.047 11.438-.062l3.298-.026 3.135-.01 2.904-.016C323 222 323 222 324 223c1.515.232 3.038.412 4.563.563l2.503.253L333 224v3c-4.303 3.586-9.636 4.115-15 5l-.375 1.938L317 236c-2.4 1.2-3.894 1.115-6.57 1.098l-2.715-.01-2.84-.025-2.863-.014q-3.507-.018-7.012-.049l1-2h19l-1-4-2-1v-2l1.563.5c5.237 1.074 9.615.838 14.437-1.5-6.006-3.107-11.236-3.527-17.937-3.687l-2.94-.104A702 702 0 0 0 300 223z" id="svg-layer-85" style="pointer-events: all;"/><path fill="#092139" d="M328 217v1l8 2v3q-3.187.039-6.375.063l-3.586.035C323 223 323 223 321 222c-2.03-.154-4.066-.25-6.102-.316l-3.671-.127-3.852-.12-3.875-.13q-4.75-.16-9.5-.307l1-2h24v-2c3.378-.845 5.675-1.108 9 0" id="svg-layer-86" style="pointer-events: all;"/><path fill="#E8E6F3" d="m378 393 2 1c3.809 13.767 3.092 29.103 3.125 43.25l.014 3.84c-.036 21.255-.036 21.255-3.139 25.91l.013-1.815q.066-9.493.097-18.986.015-3.525.04-7.052c.093-12.665-.004-25.094-1.717-37.657-.358-2.887-.522-5.589-.433-8.49" id="svg-layer-87" style="pointer-events: all;"/><path fill="#455875" d="m450 355 3 1a952 952 0 0 1-2.812 4.313l-1.583 2.425c-3.286 4.63-6.288 6.154-11.605 8.262l-2.75 1.313L432 373l-3-2c1.474-3.948 3.412-5.044 7.125-6.875 4.512-2.315 8.351-4.852 12.219-8.121z" id="svg-layer-88" style="pointer-events: all;"/><path fill="#102B4E" d="M362 301c9.485 3.545 16.77 9.745 23.063 17.563.937 2.437.937 2.437.312 5.687L384 327l-3 1-.664-1.652c-3.95-9.395-8.711-16.274-16.578-22.817L362 302z" id="svg-layer-89" style="pointer-events: all;"/><path fill="#B0B5C9" d="M291 479c2.332.344 4.665.68 7 1-.498 3.735-.875 5.812-3 9-2.562.25-2.562.25-5 0l-1-1 .688 2.688c.312 3.312.312 3.312-.875 6.187L287 499h-4l-1-3 2-1v2l2-1v-14h-2v-3c2.724-1.362 4.039-.658 7 0" id="svg-layer-90" style="pointer-events: all;"/><path fill="#838EA5" d="m440 368 2 1c-2.907 4.361-6.951 5.317-11.812 6.938C428 377 428 377 427.063 378.875c-1.607 3.213-3.976 4.424-7.063 6.125l-3-1 1.938-1.812C421 380 421 380 422 377l-5-1c2.302-2.6 4.499-3.847 7.688-5.187l2.449-1.043L429 369v2c2.125.75 2.125.75 5 1 3.313-1.937 3.313-1.937 6-4" id="svg-layer-91" style="pointer-events: all;"/><path fill="#0B233E" d="M352 360c4.616.181 6.484.484 9.813 3.813C366 369.914 366 369.914 366 374l-8 1 1-5-6 2-2-6h2v-3h2v-2z" id="svg-layer-92" style="pointer-events: all;"/><path fill="#BCC0D2" d="M242.688 103.375 245 104v5l-3.375.25c-3.625.75-3.625.75-5.062 2.813L236 114l-5-1-1 8h2v-4h2l1 3-2 3-5-1-.375-2.937L227 116l-2-1-1 5h-3l4-8h2v-2l5-1 1 2 3 1 .313-3.375L237 105c3-2 3-2 5.688-1.625" id="svg-layer-93" style="pointer-events: all;"/><path fill="#A4AAC3" d="m389 279 4 1c4.481 11.763 1.906 23.527-2 35h-2l.125-3.125C389 308 389 308 387.996 305.175c-1.094-3.487-1.164-6.221-1.058-9.863.16-6.02.16-6.02-.938-9.312a110 110 0 0 1 3-7m1 8c-1.145 3.684-1.202 7.22-1.25 11.063l-.078 3.722C389 305 389 305 390.516 306.934L392 308c1.566-5.915 2.838-11.863 2-18l-2-3z" id="svg-layer-94" style="pointer-events: all;"/><path fill="#E8E6F3" d="M396 509c1 3 1 3 1 5 9.508 1.76 18.715 2.336 28.375 2.313l3.922.048c9.295.005 17.693-1.233 26.703-3.361v2q-2.748.726-5.5 1.438l-3.094.808c-6.986 1.546-13.778 1.948-20.906 1.942h-2.621c-9.398-.083-18.743-.904-27.879-3.188l-1 9h-1q.21-3.72.438-7.437l.119-2.143c.33-5.307.33-5.307 1.443-6.42" id="svg-layer-95" style="pointer-events: all;"/><path fill="#0D2640" d="M417 197c2.5 2.313 2.5 2.313 5 5v3l-5 1v3l2.375-.625L422 208l2 2c3.625.125 3.625.125 7 0v2l8-2 1 3h-27l-1-7 5-2z" id="svg-layer-96" style="pointer-events: all;"/><path fill="#E8E6F3" d="M206 507c1.922.68 1.922.68 4 2 .828 2.383.828 2.383 1.25 5.125.15.91.3 1.82.453 2.758L212 519l-1.29-1.512C209 516 209 516 205.626 516.188q-2.317.381-4.625.812c-9.086 1.648-17.833 2.31-27.062 2.25l-3.565.023c-7.646-.016-14.877-.768-22.373-2.273v-2l3.344.46c18.614 2.315 37.48 2.489 55.656-2.46z" id="svg-layer-97" style="pointer-events: all;"/><path fill="#183262" d="M209 279c6.295 6.995 10.354 15.563 10.3 25.027-.469 3.081-2.151 4.824-4.3 6.973-.626-3.207-.999-6.025-.844-9.3-.177-4.198-1.242-6.612-3.156-10.325-3.521-6.863-3.521-6.863-3-11.375z" id="svg-layer-98" style="pointer-events: all;"/><path fill="#132D55" d="M366 105c8.179 1.377 14.4 6.135 20.875 11.063l1.695 1.282c2.952 2.297 5.364 4.528 7.43 7.655l-2 2-8-8v2c-2.5 1.625-2.5 1.625-5 3l-2-2h2l-1-9c-3.375.547-5.082 1.055-8 3l.625-1.812C373 112 373 112 371 109a198 198 0 0 0-5-3z" id="svg-layer-99" style="pointer-events: all;"/><path fill="#163059" d="m207 502-.625 2.375L206 507l2 2c-.375 2.625-.375 2.625-1 5l-9 2-1-2h4v-2h-6v-1l7-2 1-4-3 1a69 69 0 0 1-4-1c-2.761-.15-5.503-.256-8.266-.316l-2.404-.063q-3.79-.097-7.58-.183l-5.148-.131q-6.3-.16-12.602-.307v-1l3.824.016q7.005.026 14.01.039 3.036.008 6.07.02c2.905.013 5.809.018 8.713.023l2.753.015h2.547l2.248.007c2.62-.171 4.054-1.12 6.835-1.12" id="svg-layer-100" style="pointer-events: all;"/><path fill="#E8E6F3" d="m224 489 1.715.914c2.263 1.076 4.443 1.77 6.847 2.461 5.42 1.789 6.59 3.99 9.188 9 3.672 6.506 9.273 10.21 16.25 12.625 2.792.701 5.599 1.212 8.438 1.688l2.216.392q2.67.469 5.346.92v1c-9.38.563-20.4-.768-28.254-6.273-3.71-3.669-6.17-8.23-8.746-12.727-2.579-3.868-4.58-3.942-8.906-5.059C226 493 226 493 224.719 490.902z" id="svg-layer-101" style="pointer-events: all;"/><path fill="#818BA2" d="M192 213c6.933 2.003 6.933 2.003 9 5 1.525 3.848 2.175 6.172 1.313 10.25-1.572 3.293-2.747 5.023-6.063 6.563-3.42.285-6.06-.631-9.25-1.813l-2-3c.563-2.625.563-2.625 2-5 2.5-.937 2.5-.937 5-1 2.36 2.36 2.491 3.779 3 7l4 1c1.675-5.024 1.236-9.9 0-15l-8-2z" id="svg-layer-102" style="pointer-events: all;"/><path fill="#071C30" d="m284.25 519.875 2.258.027c1.83.024 3.661.06 5.492.098v2l-7-1v2h7v2l8 1v1h-36v-1l11-1v-2l-3-1c3.842-2.568 7.814-2.227 12.25-2.125" id="svg-layer-103" style="pointer-events: all;"/><path fill="#0B2441" d="M161 194c3.625.375 3.625.375 7 1l1 5c-5.75 3-5.75 3-8 3l2 3h2v2l4 2h-2l-1 2-1-2-1 2h-6l1-2 3 1v-2l-5-1q.425-2.94.875-5.875l.492-3.305C159 196 159 196 161 194" id="svg-layer-104" style="pointer-events: all;"/><path fill="#405371" d="M238 366c1 3 1 3 .223 4.754l-1.16 1.808C235 375.815 235 375.815 235 378l-1.75.625C231 380 231 380 229 383.063c-2 2.937-2 2.937-4.187 3.687L223 387l-1 2c-.353-4.413-.327-7.667 2.383-11.316 3.823-3.981 8.284-7.282 12.617-10.684z" id="svg-layer-105" style="pointer-events: all;"/><path fill="#E8E6F3" d="M409 334h1c-.452 11.419-.905 22.838-1.5 34.25l-.107 2.214c-.179 3.285-.418 6.383-1.393 9.536l1.68-.91 2.195-1.152 2.18-1.16L415 376l2 1-2.23 1.25c-5.783 3.422-9.834 6.223-12.965 12.246L401 392h-1c-.25-2.812-.25-2.812 0-6 1.938-1.687 1.938-1.687 4-3 .903-2.708 1.202-4.645 1.373-7.456l.172-2.72.174-2.926.386-6.109q.299-4.826.593-9.652c.19-3.1.387-6.2.583-9.301l.174-2.939.172-2.7.146-2.389C408 335 408 335 409 334" id="svg-layer-106" style="pointer-events: all;"/><path fill="#5B6C8A" d="M405 334c2.34 2.34 2.319 2.876 2.375 6.063-.085 5.263-1.943 9.344-4.375 13.937h-2l-2 6c-2.597-3.896-1.876-6.6-1.25-11l.266-2.195c.477-3.592.945-5.746 2.984-8.805v8l.375-3.437L402 339l2-1c.625-2.062.625-2.062 1-4" id="svg-layer-107" style="pointer-events: all;"/><path fill="#E8E6F3" d="M196 390c3 1 3 1 4.352 3.371 2.743 6.606 4.473 12.458 4.648 19.629h-1l-.84-3.21-1.097-4.165-.553-2.117c-1.397-5.281-1.397-5.281-2.51-7.508l.092 1.993c.633 14.013 1.058 27.98.908 42.007h-1a885 885 0 0 1-3-50" id="svg-layer-108" style="pointer-events: all;"/><path fill="#CFD1E2" d="M368 352c3.562 5.343 5.104 10.254 6.375 16.5 1.228 5.661 2.799 9.17 6.625 13.5h1l1-6h1v11h-2c-1.516-1.54-1.516-1.54-3.25-3.625-3.097-3.649-6.325-7.034-9.75-10.375l1-2 2 2c-1.038-3.273-2.155-6.328-3.625-9.437-1.47-3.811-1.699-6.516-1.375-10.563z" id="svg-layer-109" style="pointer-events: all;"/><path fill="#E8E6F3" d="m249 314 2 1-2 3c-.478 3.664-.307 5.472 1.563 8.688 4.51 4.278 8.498 5.48 14.562 5.562 3.384-.103 6.59-.374 9.875-1.25-1.074 1.477-1.074 1.477-3 3-3.145.398-3.145.398-6.812.375l-3.645.023c-5.038-.566-8.382-2.624-12.543-5.398 1.966 3.932 6.03 6.331 10 8 4.697.496 9.425.18 14-1-1.865 2.484-2.795 2.97-5.926 3.434-11.393.013-11.393.013-16.074-4.434l-2.875-2.562c-2.87-3.621-2.644-7.392-2.594-11.852.532-2.932 1.517-4.375 3.469-6.586M194 344h2l1 31c-5.254-7.881-3.116-21.687-3-31m-34 14c9.291 4.313 18.563 8.656 27.625 13.438l1.916.998c4.338 2.321 4.338 2.321 5.459 4.564-6.048-2.34-11.865-5.174-17.712-7.968a731 731 0 0 0-4.097-1.934 800 800 0 0 1-5.925-2.813l-3.57-1.691C161 361 161 361 160 358" id="svg-layer-110" style="pointer-events: all;"/><path fill="#122A47" d="m448 217 9 2c1.003 3.191 1.187 4.576-.187 7.688-1.897 2.419-2.882 3.45-5.813 4.312-2.75-.375-2.75-.375-5-1v-5c3.875-1 3.875-1 5-1v-2h-6z" id="svg-layer-111" style="pointer-events: all;"/><path fill="#122D53" d="m398 419 3 3 2-3c-.525 14.01-1.095 28.01-2 42h-2q-.506-2.843-1-5.687l-.562-3.2A47 47 0 0 1 397 444l4-2-1-14-3 2z" id="svg-layer-112" style="pointer-events: all;"/><path fill="#061A2E" d="M449 387c2.71 2.71 2.982 4.478 3.114 8.278q0 2.008-.016 4.015l-.005 2.14a2132 2132 0 0 1-.03 6.755q-.009 2.29-.014 4.583-.017 5.615-.049 11.229h-1l-1-8h-2c-.03-3.333-.047-6.667-.062-10l-.026-2.832c-.02-5.49.275-10.737 1.088-16.168" id="svg-layer-113" style="pointer-events: all;"/><path fill="#0C2645" d="M144 345c2.277 2.193 4.24 4.325 6.125 6.875 3.41 4.216 8.185 6.557 12.875 9.125l-4 1v3c-6.075-1.84-10.537-5.735-13.937-11-1.135-3.203-1.304-5.628-1.063-9" id="svg-layer-114" style="pointer-events: all;"/><path fill="#E7E5F2" d="M371 273c3.28 2.46 3.953 3.682 4.563 7.813-.256 4.709-2.165 7.975-5.563 11.187-4.135 2.025-5.461 2.135-10 1l9-3-2.633-.148-3.492-.227c-1.137-.07-2.274-.14-3.445-.21-3.384-.41-6.246-1.225-9.43-2.415l1 2c-2.676-1.006-3.779-1.542-5.047-4.164l-.703-2.461-.734-2.477L344 278h2l.625 1.75c2.12 3.47 5.309 5.54 9.148 6.86 3.015.528 5.92.483 8.977.452l3.547-.027L371 287c1.706-3.914 2.17-5.849 1-10l-.562-2.312z" id="svg-layer-115" style="pointer-events: all;"/><path fill="#0F284A" d="m431 175 3 1a92 92 0 0 1 3.188 8.188l.826 2.29c1.485 4.292 2.412 7.92 1.986 12.522l-1 2-7-2-1-4 5-1 1 3v-4l-4-1 .688-3.187c.355-4.34-.38-5.306-2.688-8.813-.187-2.812-.187-2.812 0-5" id="svg-layer-116" style="pointer-events: all;"/><path fill="#102A4D" d="M146 508c1.869.419 3.725.896 5.574 1.395 7.747 1.86 15.306 2.159 23.238 2.293q2.08.05 4.159.103 5.014.123 10.029.209v1h-33l6 1v1c-12.67 1.702-12.67 1.702-18-2 .875-3.875.875-3.875 2-5" id="svg-layer-117" style="pointer-events: all;"/><path fill="#E8E6F3" d="M219 429h1l.06 2.668c.458 19.342 1.075 38.296 4.94 57.332-3.17-2.285-3.628-4.919-4.28-8.644l-.345-2.231-.378-2.334c-1.757-11.218-2.083-22.2-2.122-33.541l-.014-3.578.006-3.344.004-3.034C218 430 218 430 219 429" id="svg-layer-118" style="pointer-events: all;"/><path fill="#102A4D" d="m171 169 2 4-2 1c-.667 3.07-1 5.858-1 9l-3 2c-.8 1.875-.8 1.875-1.312 4l-.551 2.125L165 193l2 2c-3.01.934-3.867 1.044-7 0 5.057-20.886 5.057-20.886 11-26" id="svg-layer-119" style="pointer-events: all;"/><path fill="#102B4D" d="M387 288h1l-.07 2.852-.055 3.773-.07 3.727c.193 3.609 1.016 6.262 2.195 9.648-.375 3.875-.375 3.875-1 7h-3c-2.589-3.873-2.296-7.958-2.25-12.437l-.023-2.276c.031-9.045.031-9.045 3.273-12.287" id="svg-layer-120" style="pointer-events: all;"/><path fill="#D7D8E8" d="M301 126h2l1 5 2-1h3l-3 4 4 2-1 2h-4v2l-3 1-1-3-2 2h-2v-2l-5-2c2.62-1.746 4.038-2.387 7-3z" id="svg-layer-121" style="pointer-events: all;"/><path fill="#8E99B3" d="M426 168c2.375.688 2.375.688 5 2 1.313 2.625 1.313 2.625 2 5h-2l2 9-7 1v-2l4-2h-5v-2h4v-3l-9 1 3-1-2-3 1-3 4 1z" id="svg-layer-122" style="pointer-events: all;"/><path fill="#E5E3F1" d="M228 269v3l-1 1c.46 6.218.46 6.218 2.25 8.813 5.187 3.519 10.657 3.737 16.75 4.187v2c-6.21.333-10.283-.55-16-3v1c3.78 2.728 6.696 3.434 11.313 3.688l3.238.199L247 290c-4.488 2.62-8.06 2.177-13 1-4.79-2.44-7.591-5.183-10-10-.563-2.976-.4-4.896 0-8 2-2.5 2-2.5 4-4" id="svg-layer-123" style="pointer-events: all;"/><path fill="#0A2540" d="M164 506h25v4c-1.414.224-2.832.428-4.25.625l-2.39.352c-2.714.027-4.052-.606-6.36-1.977l-2-1v2h-12l3-2z" id="svg-layer-124" style="pointer-events: all;"/><path fill="#122C53" d="m195 132 2 3-2 2 4 2-1 3c-3 1-3 1-5 1l-2.5 1.5C188 146 188 146 186 146l-.375 1.875C185 150 185 150 183 152h-3c3.577-7.59 9.434-13.809 15-20" id="svg-layer-125" style="pointer-events: all;"/><path fill="#9BA3B8" d="M235 376c4.654-.325 7.234.202 11 3 1.608 3.216 1.482 6.512 1 10-1.108 2.578-2.433 4.649-4 7h3v2h-5l-1-3c-3.062-1.687-3.062-1.687-6-3 2.463-1.231 4.28-1.072 7-1 1.591-4.177 2.213-7.532 2-12l-8-2z" id="svg-layer-126" style="pointer-events: all;"/><path fill="#0B2441" d="M186 373c4.976 1.756 9.256 4.256 13 8-.354 2.263-.975 3.95-2 6-3.283-1.49-5.93-3.386-8.75-5.625l-2.422-1.914L184 378l2-2z" id="svg-layer-127" style="pointer-events: all;"/><path fill="#0C2642" d="M411 317c-.585 3.242-1.546 4.886-3.812 7.25-3.266 3.628-5.167 7.32-7.188 11.75l-1-4 2-1-4-3 2-2a249 249 0 0 0 3-4l-4-1c8.03-5.657 8.03-5.657 13-4" id="svg-layer-128" style="pointer-events: all;"/><path fill="#1D3657" d="M347 96c4.689.556 8.2 1.882 12.375 4.063 1.06.547 2.12 1.095 3.21 1.66L365 103l-1 2-3.437-.062C357 105 357 105 356 106c-1.666.04-3.334.043-5 0a652 652 0 0 1-2-3.875l-1.125-2.18C347 98 347 98 347 96" id="svg-layer-129" style="pointer-events: all;"/><path fill="#0C2543" d="M206 481h2l-.035 1.758c-.04 3.496-.041 6.785.535 10.242.669 4.014.581 7.941.5 12h4l-2 9h-1l-.937-2.875C208 508 208 508 207 506a76 76 0 0 1 1-5l-4-1a555 555 0 0 1-.125-6.125l-.07-3.445c.198-3.488.943-6.185 2.195-9.43" id="svg-layer-130" style="pointer-events: all;"/><path fill="#E7E5F2" d="M385 286c1.01 3.142.806 4.855 0 8a191 191 0 0 0-.25 8.5l-.062 2.3c-.031 4.404.203 6.997 3.312 10.2l1 2-3 4-2.09-2.414c-5.455-6.19-10.635-11.49-17.91-15.586l1-2c6.503 3.974 11.808 8.426 17 14l-1.016-3.031c-1.118-3.93-1.055-7.383-.734-11.469l.266-3.781c.493-3.789 1.341-7.085 2.484-10.719" id="svg-layer-131" style="pointer-events: all;"/><path fill="#071D34" d="M211 498c4.44 6.66 5.382 11.124 5 19v2l8 1v1h-9v5h-1l-.937-3.312A170 170 0 0 0 211 516c-.168-1.937-.168-1.937-.187-4l-.043-2.062C211 508 211 508 213 505h-4c-.125-2.375-.125-2.375 0-5z" id="svg-layer-132" style="pointer-events: all;"/><path fill="#071D33" d="m295 294 1 2h6l-2 6h2v4c-2.5 1.75-2.5 1.75-5 3v-5l-4-1v-3h-4l-2-4c3.287-.8 4.71-1.097 8 0z" id="svg-layer-133" style="pointer-events: all;"/><path fill="#E8E6F3" d="M397 272c1.312 2.624 1.525 5.095 2 8l.508 1.867c3.533 13.19 1.247 25.377-2.508 38.133l2 1-5 6c-1.395-4.184.083-7.269 1.375-11.312 4.821-15.352 4.115-27.485-1.375-42.688z" id="svg-layer-134" style="pointer-events: all;"/><path fill="#8591B0" d="M177 162h5l1 5-3 2v3h-4v-2h-2v4h3l2 5-3-2c-3.187.375-3.187.375-6 1l1-2.25c1-2.75 1-2.75 1-6.75l2-1a134 134 0 0 0 3-6" id="svg-layer-135" style="pointer-events: all;"/><path fill="#586A8B" d="m349 120 1 4h4c1.75 1.5 1.75 1.5 3 3l-2 2 1 2c-5.131-.513-9.748-2.057-14-5l-1-3c4.625-3 4.625-3 8-3" id="svg-layer-136" style="pointer-events: all;"/><path fill="#0F2849" d="M284 89c-2.427 3.844-2.427 3.844-4.98 4.54-.729.027-1.457.056-2.207.085-3.087.21-5.89.56-8.875 1.375-3.961 1.068-7.861 1.563-11.938 2 .531-1.86.531-1.86 2-4a52.4 52.4 0 0 1 7.5-2.25l2.172-.515c5.477-1.224 10.715-1.72 16.328-1.235" id="svg-layer-137" style="pointer-events: all;"/><path fill="#081E34" d="M377 348c1.488 1.113 1.488 1.113 3 3 .293 2.918.293 2.918.188 6.188l-.083 3.292L380 363l-1-3h-2v6h-3v-3l-1.5-1.375C371 360 371 360 370.625 357.438L371 355l3-2 3 1-1-3z" id="svg-layer-138" style="pointer-events: all;"/><path fill="#0F2A4C" d="M406 335h2c.134 10.386-.238 20.643-1 31h-1l-1-5-5 1c.623-3.93 1.879-7.095 3.563-10.687 2.433-5.644 3.043-10.23 2.437-16.313" id="svg-layer-139" style="pointer-events: all;"/><path fill="#7683A5" d="m402 252 2 2c-.252 6.883-3.772 13.098-7 19-3.08-.33-4.603-.592-6.8-2.848-.5-.73-.999-1.461-1.512-2.214l-1.551-2.223L386 264c2.884 1.293 4.872 2.66 7 5 3.251-4.278 5.588-7.738 7-13h2z" id="svg-layer-140" style="pointer-events: all;"/><path fill="#E5E3F1" d="M223.938 239.938c2.722 2.722 3.023 3.54 3.312 7.437-.25 3.625-.25 3.625-1.187 6.063-2.911 2.205-5.336 2.002-8.907 1.996-2.589-.521-3.498-1.43-5.156-3.434l1-3 1.063 1.438c2.779 2.24 5.451 2.233 8.937 2.562l1-3-1-2 .25-2.437C223 243 223 243 221 241.188c-3.8-1.505-6.963-1.834-11-1.188-2.875 1.563-2.875 1.563-5 3l-2-1c6.952-4.898 13.301-7.1 20.938-2.062" id="svg-layer-141" style="pointer-events: all;"/><path fill="#E8E6F3" d="M402 399c1.31 3.93.356 5.761-.875 9.688-2.911 9.314-3.285 17.882-3.25 27.562l-.012 3.2c.01 7.229.429 14.356 1.137 21.55-8.652-12.978-3.674-37.128-.914-51.52.982-3.738 2.306-6.972 3.914-10.48" id="svg-layer-142" style="pointer-events: all;"/><path fill="#122D52" d="M390 287c3 1 3 1 4 3 .567 6.237-.408 11.986-2 18-1.484-1.066-1.484-1.066-3-3-.328-3.215-.328-3.215-.25-6.937.015-1.226.03-2.452.047-3.715.16-2.642.423-4.84 1.203-7.348" id="svg-layer-143" style="pointer-events: all;"/><path fill="#1B355C" d="M400 174h5v3l2 1-1 4 2.875.438C412 183 412 183 414 184l-1 4-2.312-.562C408 187 408 187 405 188c-2.533-4.642-4.465-8.652-5-14" id="svg-layer-144" style="pointer-events: all;"/><path fill="#516384" d="M440 197c1.932 3.345 2.546 6.448 3.125 10.25l.508 3.266L444 213l-5-1v-2l-3-1 2-6h-6v-3c3-1 3-1 5.188-.062L439 201z" id="svg-layer-145" style="pointer-events: all;"/><path fill="#E2E1EF" d="M213 284c5.058 4.552 7.318 11.35 8 18l1.68-1.129 2.195-1.433 2.18-1.442L229 297l2 1-1.469.96c-6 4.179-10.189 9.196-14.531 15.04-2.43-2.274-3.428-3.683-4-7h4l1 2c2.507-3.76 2.622-6.648 2-11-.876-2.644-1.897-5.158-3.027-7.703-.888-2.096-1.49-4.078-1.973-6.297" id="svg-layer-146" style="pointer-events: all;"/><path fill="#0E2848" d="m403 399 2 1c-.425 7.867-1.025 15.362-3 23-2.125-1.312-2.125-1.312-4-4 .212-6.866 2.632-13.607 5-20" id="svg-layer-147" style="pointer-events: all;"/><path fill="#E8E6F3" d="M202 346h2l1 43c-2.3-2.3-4.553-4.604-6.75-7l-1.922-2.062L195 378l1-3 1.813 2.375C200 380 200 380 203 382z" id="svg-layer-148" style="pointer-events: all;"/><path fill="#BDC1D7" d="M285 354c3.083 1.199 6.063 2.477 9 4l1-4 1 2 2-1c-.486 3.123-.999 5.996-2 9-2.683 1.45-4.273 2.118-7.312 1.625L287 365h2c.566-4.814-1.174-7.203-4-11" id="svg-layer-149" style="pointer-events: all;"/><path fill="#0E2746" d="M408 324h1v10l-3 1c-1.187 2.063-1.187 2.063-2 4h-2v10c-2.67-4.005-2.125-6.407-1.617-11.066 1.133-5.388 3.73-10.048 7.617-13.934" id="svg-layer-150" style="pointer-events: all;"/><path fill="#132F56" d="M163 505h28v1l-26 1 1 2c1.848.414 1.848.414 4.063.625L174 510v-2c2.867.573 3.861.861 6 3q-4.531.04-9.062.063l-2.569.025c-4.905.019-9.533-.255-14.369-1.088 3.188-2.125 5.265-2.502 9-3z" id="svg-layer-151" style="pointer-events: all;"/><path fill="#0C2542" d="M146 502a6011 6011 0 0 1 8.887 1.465c2.715.467 5.414.98 8.113 1.535v2h-3l-1 2c-8.035.63-8.035.63-12.062-2L145 505z" id="svg-layer-152" style="pointer-events: all;"/><path fill="#152F5A" d="M204 418h1q.075 6.079.11 12.158.015 2.06.04 4.12c.11 8.8-.347 17.097-2.15 25.722h-2a444 444 0 0 1-.125-5.375l-.07-3.023C201 449 201 449 203 447c.195-2.602.195-2.602.125-5.625l-.055-3.04L203 436h-1v-12h1z" id="svg-layer-153" style="pointer-events: all;"/><path fill="#919BB5" d="m276 170 6 2 1-2 .813 2.813c1.098 2.95 1.811 4.243 4.187 6.187l1-3c.37 5.538.37 5.538-1.5 7.875L286 185l-3-1-.875-3.312c-1.291-4.233-2.665-5.138-6.125-7.688z" id="svg-layer-154" style="pointer-events: all;"/><path fill="#102B4D" d="M402 132c3.81 1.547 6.024 3.904 8.75 6.938l2.422 2.652C415 144 415 144 415 147c-1.875-.25-1.875-.25-4-1l-.75-2c-1.25-2-1.25-2-3.148-2.484-2.027-.242-4.065-.385-6.102-.516l-1-5 4 1-1-1.937C402 133 402 133 402 132" id="svg-layer-155" style="pointer-events: all;"/><path fill="#0A223B" d="M280 483h7v13l-3 1-3-5-1 2v-4h2l-1-1.812C280 486 280 486 280 483" id="svg-layer-156" style="pointer-events: all;"/><path fill="#E5E3F1" d="M319 310h1l.332 2.414c.862 5.763 1.773 10.454 4.668 15.586v3c6.599 5.028 12.951 4.402 21 4-2.719 2.719-4.328 2.363-8.125 2.438-6.174-.116-10.476-.952-14.875-5.438-4.149-5.799-5.347-11.874-4.562-18.937z" id="svg-layer-157" style="pointer-events: all;"/><path fill="#E8E6F3" d="m289 370 7 1q.795 2.653 1.563 5.313l.878 2.988C299 382 299 382 298 385c-1-1-1-1-1.062-3.562L297 379h-2l-1 7h-2l1-6-7 4c.563-2.312.563-2.312 2-5 2.28-1.348 4.48-2.114 7-3l-1-2-2 1-3-2h2v-2zM156 364c29.882 13.147 29.882 13.147 41 24l-1 2-1.59-1.652c-9.95-9.685-22.348-15.532-35.285-20.278C157 367 157 367 156 364" id="svg-layer-158" style="pointer-events: all;"/><path fill="#E4E3F0" d="M202 276h2l-.473 3.262c-1.644 12.021-2.197 23.053 1.852 34.715C206 316 206 316 206 319h-2c-1.508-1.969-1.508-1.969-3.125-4.5l-1.633-2.531L198 310l4 1-.437-1.984c-2.315-11.381-1.818-21.66.437-33.016" id="svg-layer-159" style="pointer-events: all;"/><path fill="#092037" d="m282 233 3 1v2l22 1v2c-3.77.226-7.54.428-11.312.625l-3.249.195-3.115.157-2.872.158C284 240 284 240 281 238z" id="svg-layer-160" style="pointer-events: all;"/><path fill="#E8E6F3" d="m274 226 3.559.992c6.782 1.507 13.592 1.222 20.503 1.133q2.035-.016 4.069-.027 4.935-.036 9.869-.098v1h-23l-1 5 7 2v1c-6.055.195-6.055.195-8 0l-2-2 2-5-13-1z" id="svg-layer-161" style="pointer-events: all;"/><path fill="#4D6085" d="M358 129h2l.723 1.965C362 133 362 133 364.059 133.504l2.378.059c4.189.117 4.189.117 6.348 1.964L374 137l-1 3c-5.027.413-7.379-.476-11.375-3.5l-2.648-1.969L357 133z" id="svg-layer-162" style="pointer-events: all;"/><path fill="#142E52" d="m417 225 1 5c-1.874 1.952-3.223 2.982-5.977 3.047-5.586-.61-5.586-.61-8.023-3.047 1.813-1.062 1.813-1.062 4-2l3 1v-4c2.49-1.245 3.41-.777 6 0" id="svg-layer-163" style="pointer-events: all;"/><path fill="#0C2542" d="m197.188 504.875 3.292.055 2.52.07-1 4c-5.76 1.298-11.087 2.257-17 2l4-1-1-3c3.527-2.351 5.029-2.214 9.188-2.125" id="svg-layer-164" style="pointer-events: all;"/><path fill="#132E55" d="M247 327h2v2c5.149 2.67 9.474 4.24 15.313 4.625l3.238.227L270 334v1h-5v2l3 1c-6.149.64-10.166.017-15.27-3.559-2.294-1.911-4.075-3.959-5.73-6.441z" id="svg-layer-165" style="pointer-events: all;"/><path fill="#0A223C" d="m291.313 222.875 3.8.055L298 223l-3 1c-.687 2.063-.687 2.063-1 4-10.558.185-10.558.185-15-1v-2c4.219-2.049 7.654-2.212 12.313-2.125" id="svg-layer-166" style="pointer-events: all;"/><path fill="#A0A8C0" d="M403 142h7l.75 1.75c1.417 2.55 3.126 4.268 5.25 6.25l-2 4-5-1-2-6h2v-4l-5 2z" id="svg-layer-167" style="pointer-events: all;"/><path fill="#092037" d="M399 423h1c1.01 4.156 1.102 8.044 1.063 12.313l-.028 3.8L401 442h-2v5c-3.596-5.394-2.691-13.221-1.547-19.477.547-1.898.547-1.898 1.547-4.523" id="svg-layer-168" style="pointer-events: all;"/><path fill="#E8E6F3" d="M225 386c1 2 1 2 .477 3.953l-.852 2.297c-2.057 5.576-2.721 11.116-3.16 17.023l-.264 3.497-.263 3.605-.276 3.676q-.335 4.475-.662 8.949h-1c-.73-29.22-.73-29.22 6-43" id="svg-layer-169" style="pointer-events: all;"/><path fill="#8892AD" d="M366 107c5.541 1.446 5.541 1.446 7.5 3.813.674 2.946-.174 4.535-1.5 7.187a435 435 0 0 1-3.937-1.875l-2.215-1.055C364 114 364 114 363 112l1.5-1.937C366 108 366 108 366 107" id="svg-layer-170" style="pointer-events: all;"/><path fill="#10294B" d="M458 509c-.227 1.887-.227 1.887-1 4-1.96 1.082-1.96 1.082-4.375 1.813l-2.398.769C448 516 448 516 445 515v-2l-7-1v-1l2.957-.402 3.856-.536 3.832-.527c7.413-1.182 7.413-1.182 9.355-.535" id="svg-layer-171" style="pointer-events: all;"/><path fill="#CDCFE0" d="M440 299v2l5-2c-5.895 6.448-13.214 10.18-20.812 14.313l-1.996 1.096C417.352 317 417.352 317 414 317c7.597-5.435 15.729-9.706 24-14h-5c4.75-4 4.75-4 7-4" id="svg-layer-172" style="pointer-events: all;"/><path fill="#06192B" d="m176 239 4 1v16h-4z" id="svg-layer-173" style="pointer-events: all;"/><path fill="#E8E6F3" d="M383 118c3.789.56 5.461 2.138 8.063 4.875l2.035 2.117L395 127a528 528 0 0 0 3 3h-7l1-3c-2.312-2.062-2.312-2.062-5-4l-3 1 1 5 3 1v-3l-3-1 5 1-1 4c-2.804.227-4.462.34-6.875-1.187C381 128 381 128 381.125 125.5c.91-2.6 1.776-3.766 3.875-5.5z" id="svg-layer-174" style="pointer-events: all;"/></svg>